<?xml version="1.0" encoding="UTF-8"?>
<svg id="Layer_2" data-name="Layer 2" xmlns="http://www.w3.org/2000/svg" viewBox="0 0 24 24">
  <g id="_Layer_" data-name="&amp;lt;Layer&amp;gt;">
    <path d="M23.83,10C22.99,4.98,19.02,1.01,14,.17c-.65-.11-1.32-.17-2-.17s-1.35.06-2,.17C4.98,1.01,1.01,4.98.17,10c-.11.65-.17,1.32-.17,2s.06,1.35.17,2c.84,5.02,4.81,8.99,9.83,9.83.65.11,1.32.17,2,.17s1.35-.06,2-.17c5.02-.84,8.99-4.81,9.83-9.83.11-.65.17-1.32.17-2s-.06-1.35-.17-2ZM10,22.82c-4.47-.82-8-4.35-8.82-8.82h8.82v8.82ZM10,13H1v-2h9v2ZM10,10H1.18C2,5.53,5.53,2,10,1.18v8.82ZM13,23h-2v-9h2v9ZM13,13h-2v-2h2v2ZM13,10h-2V1h2v9ZM14,1.18c4.47.82,8,4.35,8.82,8.82h-8.82V1.18ZM14,22.82v-8.82h8.82c-.82,4.47-4.35,8-8.82,8.82ZM23,13h-9v-2h9v2Z"/>
  </g>
</svg>