<?xml version="1.0" encoding="UTF-8"?>
<svg id="Layer_2" data-name="Layer 2" xmlns="http://www.w3.org/2000/svg" viewBox="0 0 23.04 24">
  <g id="_Layer_" data-name="&amp;lt;Layer&amp;gt;">
    <path d="M22.82,16.96l.23-.28c-2.4-1.95-5.76-1.93-8.13-.16-.13.07-.26.15-.39.23-.14.06-.27.12-.4.19-.15.05-.3.11-.44.17-.14.03-.27.08-.41.12-.16.02-.31.06-.47.09-.14,0-.28.03-.42.05-.16,0-.32,0-.48.01-.14-.01-.29-.02-.43-.02-.15-.03-.3-.05-.45-.06-.14-.04-.29-.07-.44-.1-.14-.05-.29-.1-.44-.14-.14-.07-.29-.12-.43-.18-.13-.07-.26-.14-.39-.2-.12-.08-.25-.16-.37-.24-.12-.1-.24-.19-.37-.28-.11-.11-.23-.21-.35-.31-.09-.11-.19-.21-.29-.31-.09-.13-.19-.25-.3-.38-.08-.13-.16-.25-.25-.37-.07-.13-.14-.27-.22-.4-.05-.14-.12-.27-.18-.4-.05-.15-.1-.3-.16-.45-.03-.14-.07-.28-.11-.41-.02-.16-.05-.32-.08-.47,0-.15-.02-.29-.04-.44,0-.15,0-.29,0-.44.02-.15.03-.31.04-.47.03-.15.06-.3.08-.46.04-.14.07-.27.11-.41.06-.14.11-.29.16-.44.07-.13.13-.27.19-.41.08-.13.15-.26.22-.39.1-.13.19-.27.28-.41.1-.11.19-.23.28-.34.1-.1.2-.2.3-.31.12-.1.24-.2.35-.31.12-.09.25-.17.36-.27.13-.07.25-.15.37-.23.13-.06.27-.13.39-.2.16-.06.31-.12.46-.19.13-.04.26-.08.39-.12.15-.03.31-.06.46-.1.13-.01.25-.04.38-.06.17,0,.34,0,.51-.02.15.01.3.02.45.02,0,0,0,0,0,0,.17.03.33.04.5.06.13.03.25.06.38.08.14.05.28.08.42.12.13.06.27.11.41.16.14.07.28.14.42.2.13.08.26.16.39.23.12.09.25.18.38.27.5.46,1.08.86,1.73,1.16l.15-.33c-.13-.06-.26-.13-.39-.2l.08-.22c-.14-.05-.27-.11-.4-.17l.06-.23c-.14-.04-.28-.09-.41-.13l.04-.24c-.14-.03-.28-.06-.42-.1l.02-.24c-.15-.01-.29-.04-.43-.06v-.24c-.14,0-.29-.01-.43-.03l-.02-.24c-.07,0-.14,0-.21,0-1.24-1.77-1.55-4.12-.59-6.23l-.33-.15c-.88,1.92-.75,4.05.15,5.79-.22-.31-.42-.64-.58-.99-.71-1.51-.8-3.22-.23-4.8l-.34-.12c-.6,1.67-.51,3.47.24,5.07.11.22.22.44.35.64-.23-.27-.44-.57-.63-.88-.84-1.45-1.06-3.14-.63-4.76l-.35-.09c-.46,1.71-.22,3.5.67,5.03.12.21.26.42.4.61-.25-.25-.49-.53-.7-.83-.96-1.37-1.32-3.04-1.03-4.69l-.35-.06c-.31,1.75.08,3.51,1.09,4.96.13.19.27.37.42.54-1.48-1.28-2.34-3.23-2.15-5.32l-.36-.03c-.19,2.09.61,4.04,2.02,5.39-1.61-1.15-2.66-3.03-2.65-5.16h-.36c-.02,2.1.96,3.98,2.48,5.21-1.71-1.01-2.92-2.8-3.08-4.93l-.36.03c.16,2.11,1.3,3.91,2.93,5-.34-.16-.67-.35-.99-.58-1.36-.98-2.25-2.43-2.52-4.09l-.35.06c.28,1.75,1.23,3.28,2.67,4.32.2.15.42.28.63.4-.34-.13-.67-.29-.99-.48-1.44-.86-2.45-2.23-2.86-3.86l-.35.09c.43,1.72,1.5,3.17,3.02,4.08.21.13.43.24.65.34-.34-.1-.68-.23-1.01-.39-1.5-.74-2.63-2.02-3.17-3.61l-.34.12c.57,1.68,1.76,3.03,3.35,3.81.21.1.42.19.63.27-1.91-.41-3.61-1.69-4.45-3.61l-.33.14c.84,1.92,2.49,3.24,4.37,3.74-1.96-.23-3.79-1.37-4.8-3.24l-.32.17c1,1.84,2.75,3.02,4.66,3.36-1.97-.06-3.89-1.05-5.05-2.82l-.3.2c1.16,1.76,3.01,2.79,4.96,2.96-.37.02-.75.01-1.12-.03-1.66-.2-3.15-1.04-4.18-2.36l-.28.22c1.09,1.39,2.66,2.28,4.42,2.49.24.03.48.04.72.05-.35.05-.71.07-1.07.06-1.67-.06-3.22-.77-4.37-2l-.26.24c1.21,1.3,2.85,2.05,4.62,2.11.08,0,.16,0,.24,0,.17,0,.33-.01.5-.02-.35.08-.71.13-1.08.15-1.67.08-3.28-.5-4.52-1.62l-.24.27c1.23,1.12,2.8,1.72,4.45,1.72.11,0,.22,0,.33,0,.23-.01.45-.03.68-.07-1.87.57-3.98.27-5.64-1.01l-.22.28c1.2.92,2.62,1.36,4.02,1.36.54,0,1.08-.07,1.6-.2-1.83.75-3.97.63-5.76-.51l-.19.3c1.1.71,2.34,1.04,3.56,1.04.73,0,1.46-.12,2.15-.36-1.76.9-3.91.97-5.79-.02l-.17.32c.98.52,2.04.76,3.08.76.92,0,1.82-.19,2.65-.55-1.67,1.04-3.81,1.28-5.76.46l-.14.33c.84.36,1.72.53,2.58.53,1.11,0,2.19-.28,3.16-.8-1.58,1.18-3.69,1.6-5.7.94l-.11.34c.68.22,1.38.33,2.06.33,1.32,0,2.6-.4,3.68-1.12-.28.25-.58.48-.91.69-1.42.88-3.11,1.15-4.74.77l-.08.35c.51.12,1.03.18,1.54.18,1.22,0,2.41-.34,3.47-.99.21-.13.41-.27.6-.42-.25.26-.51.5-.81.72-1.35,1-3,1.41-4.66,1.16l-.05.35c.33.05.66.07.99.07,1.41,0,2.78-.45,3.93-1.3.2-.15.38-.3.56-.47-.22.28-.47.54-.74.78-1.26,1.11-2.87,1.66-4.54,1.55l-.02.36c.15,0,.29.01.43.01,1.61,0,3.15-.58,4.37-1.65.17-.15.33-.31.49-.48-1.11,1.61-2.94,2.69-5.04,2.73v.36c2.12-.04,3.98-1.08,5.17-2.65-.18.33-.39.66-.64.96-1.05,1.3-2.55,2.11-4.22,2.29l.04.36c1.76-.18,3.35-1.04,4.46-2.42.16-.19.3-.39.43-.6-.15.33-.32.64-.53.95-.94,1.39-2.37,2.32-4.01,2.63l.07.35c1.74-.33,3.25-1.32,4.24-2.79.13-.19.25-.38.35-.58-.67,1.84-2.18,3.34-4.2,3.9l.1.35c2.02-.56,3.56-2.01,4.32-3.81-.5,1.92-1.89,3.57-3.88,4.31l.13.34c1.98-.74,3.4-2.33,3.99-4.2-.06.38-.15.75-.29,1.11-.57,1.58-1.71,2.84-3.23,3.55l.15.32c1.6-.76,2.82-2.09,3.41-3.76.08-.22.14-.43.2-.65-.19,1.95-1.27,3.78-3.09,4.83l.18.31c1.83-1.06,2.96-2.87,3.23-4.81,0,.38-.03.76-.09,1.14-.29,1.65-1.21,3.08-2.59,4.04l.21.29c1.45-1.01,2.43-2.53,2.74-4.28.04-.24.07-.48.09-.73.03.36.03.72,0,1.08-.15,1.67-.95,3.18-2.24,4.25l.23.28c1.61-1.34,2.42-3.29,2.38-5.24.33,1.95-.26,4.03-1.78,5.52l.25.26c1.5-1.47,2.14-3.48,1.94-5.42.49,1.92.08,4.04-1.31,5.65l.27.23c1.38-1.6,1.84-3.68,1.46-5.61.13.36.23.73.29,1.11.27,1.65-.13,3.31-1.11,4.67l.29.21c1.04-1.44,1.45-3.19,1.17-4.94-.04-.23-.08-.45-.14-.66.77,1.79.71,3.92-.37,5.72l.31.18c1.09-1.81,1.2-3.94.5-5.78.19.33.35.68.47,1.05.54,1.58.43,3.29-.31,4.79l.32.16c.78-1.59.9-3.39.33-5.07-.08-.23-.17-.46-.28-.68.2.3.37.61.52.95.67,1.53.71,3.24.1,4.8l.33.13c.65-1.65.61-3.45-.1-5.07-.09-.21-.19-.41-.31-.61,1.2,1.54,1.67,3.62,1.07,5.63l.34.1c.6-2.01.19-4.08-.93-5.68,1.36,1.44,2.02,3.49,1.59,5.57l.35.07c.43-2.07-.17-4.12-1.44-5.62.29.25.55.53.79.84,1.03,1.32,1.49,2.96,1.29,4.62l.36.04c.21-1.76-.27-3.5-1.36-4.89-.15-.19-.31-.37-.48-.55.28.22.55.45.8.72,1.14,1.23,1.74,2.82,1.68,4.5h.36c.06-1.76-.57-3.45-1.77-4.74-.16-.18-.34-.34-.52-.5,1.66,1.06,2.8,2.87,2.9,4.98l.36-.02c-.1-2.1-1.18-3.92-2.77-5.06,1.76.91,3.07,2.64,3.35,4.75l.36-.05c-.28-2.08-1.5-3.8-3.17-4.81,1.83.76,3.27,2.37,3.72,4.44l.35-.08c-.45-2.07-1.83-3.69-3.6-4.54.36.11.72.26,1.06.44,1.48.78,2.57,2.09,3.07,3.69l.34-.11c-.52-1.69-1.68-3.08-3.24-3.9-.2-.11-.41-.2-.62-.29,1.9.46,3.56,1.79,4.35,3.74l.33-.13c-.79-1.95-2.4-3.31-4.28-3.86,1.96.28,3.76,1.47,4.72,3.37l.32-.16c-.8-1.58-2.17-2.76-3.85-3.31-.22-.07-.44-.13-.66-.18,1.95.13,3.81,1.17,4.91,2.96l.3-.19c-1.11-1.8-2.94-2.87-4.89-3.1.38-.01.76,0,1.14.06,1.66.25,3.12,1.13,4.11,2.47l.29-.21c-1.05-1.42-2.6-2.35-4.35-2.61-.24-.04-.49-.06-.73-.07.36-.04.72-.05,1.08-.03,1.67.11,3.2.86,4.31,2.12l.27-.24c-1.39-1.58-3.36-2.33-5.31-2.24,1.94-.38,4.03.15,5.57,1.62l.25-.26c-1.51-1.45-3.54-2.04-5.47-1.78,1.9-.54,4.03-.19,5.68,1.15Z"/>
  </g>
</svg>