<?xml version="1.0" encoding="UTF-8"?>
<svg id="Layer_2" data-name="Layer 2" xmlns="http://www.w3.org/2000/svg" viewBox="0 0 24 24">
  <g id="_Layer_" data-name="&amp;lt;Layer&amp;gt;">
    <path d="M16.64,20.12l.06.17,7.3-2.44-2.44-7.3-.2.07c-.24-.65-.54-1.26-.89-1.83-.09-.47-.2-.95-.36-1.42l.17-.06-2.44-7.3-7.3,2.44.06.19c-.68.25-1.33.56-1.93.93-.44.09-.88.18-1.32.33l-.06-.17L0,6.16l2.44,7.3.2-.07c.24.65.54,1.25.88,1.83.09.48.2.95.36,1.42l-.17.06,2.44,7.3,7.3-2.44-.06-.19c.68-.25,1.32-.56,1.92-.93.44-.09.88-.18,1.32-.33ZM6.76,7.88l.66,1.98-1.89.63c.16-.53.35-1.05.6-1.56.19-.37.4-.72.63-1.06ZM17.24,16.12l-.66-1.98,1.89-.63c-.16.53-.35,1.05-.6,1.56-.18.37-.4.72-.63,1.06ZM12.23,12.12l-.35.12-.12-.35.35-.12.12.35ZM14.2,11.65l-.17-.52,4.74-1.59c.03.19.02.37.04.56l-4.61,1.54ZM9.8,12.35l.17.52-4.74,1.59c-.03-.19-.02-.37-.04-.56l4.61-1.54ZM14.14,7.42l-.64-1.91c.94.27,1.82.7,2.62,1.24l-1.98.66ZM11.65,9.8l-.52.17-1.59-4.74c.19-.03.37-.02.56-.04l1.54,4.61ZM9.86,16.58l.64,1.91c-.94-.27-1.82-.7-2.62-1.24l1.98-.66ZM12.35,14.2l.52-.17,1.59,4.74c-.19.03-.37.03-.56.04l-1.54-4.61ZM21.68,16.69l-3.41,1.14c1.1-1.39,1.85-3.03,2.2-4.77l1.21,3.63ZM17.84,5.77c-1.4-1.11-3.05-1.88-4.81-2.22l3.65-1.22,1.15,3.45ZM2.32,7.31l3.41-1.14c-1.1,1.39-1.85,3.03-2.2,4.77l-1.21-3.63ZM6.16,18.23c1.4,1.11,3.05,1.88,4.81,2.22l-3.65,1.22-1.15-3.45Z"/>
  </g>
</svg>