<?xml version="1.0" encoding="UTF-8"?>
<svg id="Layer_2" data-name="Layer 2" xmlns="http://www.w3.org/2000/svg" viewBox="0 0 24 24">
  <g id="_Layer_" data-name="&amp;lt;Layer&amp;gt;">
    <g>
      <path d="M5.89,12.33c-1.3,0-2.87-.05-4.78-.11l-1.1-.03v-.37l1.1-.03c3.62-.11,6.01-.19,7.7.04l1.38.18-1.38.18c-.8.11-1.75.15-2.92.15Z"/>
      <path d="M12.23,24h-.46l-.02-1.05c-.01-.84-.02-1.62-.03-2.33-.12-2.44-.21-4.38,0-5.72-.1-.72-.23-.82-.25-.83-.12.03-.51.42-1.45,2.11l-.43-.15c.71-1.41,1.07-2.33,1.22-3.14-.46-.35-1.13-.58-2.08-.7l-1.38-.18,1.38-.18c.95-.13,1.62-.35,2.08-.7-.15-.81-.51-1.73-1.22-3.14l.43-.15c.94,1.68,1.33,2.07,1.48,2.1-.02,0,.12-.1.22-.82-.21-1.34-.11-3.28,0-5.73,0-.71.02-1.49.03-2.33l.02-1.05h.46l.02,1.05c.01.84.02,1.62.03,2.33.12,2.44.21,4.38,0,5.72.1.72.23.82.25.83.12-.03.51-.42,1.45-2.11l.43.15c-.71,1.41-1.07,2.33-1.22,3.14.46.35,1.13.58,2.08.7l1.38.18-1.38.18c-.95.13-1.62.35-2.08.7.15.81.51,1.73,1.22,3.14l-.43.15c-.94-1.68-1.33-2.07-1.48-2.1.02,0-.12.1-.22.82.21,1.34.11,3.28,0,5.73,0,.71-.02,1.49-.03,2.33l-.02,1.05ZM11.48,13.7s.05,0,.07,0c.2.03.34.15.45.4.1-.25.25-.37.45-.4.17-.02.35.04.55.21-.13-.39-.22-.74-.28-1.07v-.09s.06-.06.06-.06c.37-.3.84-.53,1.45-.69-.61-.16-1.09-.39-1.45-.69l-.08-.06v-.09c.07-.33.16-.68.29-1.07-.2.18-.37.23-.55.21-.2-.03-.34-.15-.45-.4-.1.25-.25.37-.45.4-.17.02-.35-.04-.55-.21.13.39.22.74.28,1.07v.09s-.06.06-.06.06c-.37.3-.84.53-1.45.69.61.16,1.09.39,1.45.69l.08.06v.09c-.07.33-.16.68-.29,1.07.17-.15.33-.22.48-.22Z"/>
      <path d="M18.11,12.33c-1.17,0-2.12-.04-2.92-.15l-1.38-.18,1.38-.18c1.69-.22,4.08-.15,7.7-.04l1.1.03v.37l-1.1.03c-1.91.06-3.48.11-4.78.11Z"/>
      <path d="M7.72,20.47l-.43-.14.4-.77c.77-1.47,1.38-2.63,1.9-3.54l.43.15c-.39.78-.88,1.67-1.44,2.71-.27.5-.56,1.03-.86,1.6Z"/>
      <path d="M16.28,20.47c-.31-.57-.59-1.1-.86-1.6-.56-1.04-1.05-1.94-1.44-2.71l.43-.15c.51.91,1.12,2.07,1.89,3.53l.41.78-.43.14Z"/>
      <path d="M14.41,7.98l-.43-.15c.39-.78.88-1.67,1.44-2.71.27-.49.55-1.02.86-1.6l.43.14-.41.78c-.77,1.46-1.38,2.62-1.89,3.53Z"/>
      <path d="M9.59,7.98c-.51-.92-1.12-2.08-1.9-3.54l-.4-.77.43-.14c.31.57.6,1.11.86,1.6.56,1.04,1.04,1.93,1.44,2.71l-.43.15Z"/>
    </g>
  </g>
</svg>