<?xml version="1.0" encoding="UTF-8"?>
<svg id="Layer_2" data-name="Layer 2" xmlns="http://www.w3.org/2000/svg" viewBox="0 0 23.96 24">
  <g id="_Layer_" data-name="&amp;lt;Layer&amp;gt;">
    <path d="M11.96,24l-11.34-.08v-.66H.08l-.08-11.32L.08.59l.54-.03V.08l11.32-.08,11.34.08v.59h.59l.08,11.32-.08,11.34h-.59v.59l-11.32.08ZM1.58,22.96l10.38.08,10.36-.08v-.23l-10.39-.08-10.35.11v.19ZM22.69,22.37h.23l.08-10.38-.08-10.36h-.23l-.08,10.37.08,10.37ZM1.04,22.29l.23-.04.08-10.31-.08-10.39h-.23l-.08,10.38.08,10.36ZM1.68,12l.58,2.38c.9,3.67,3.73,6.49,7.41,7.35l2.3.54,2.3-.54c3.67-.87,6.51-3.68,7.41-7.35l.58-2.38-.58-2.38c-.9-3.67-3.74-6.48-7.41-7.35l-2.3-.54-2.3.54c-3.67.87-6.51,3.68-7.41,7.35l-.58,2.38ZM17.02,21.74l4.71.03-.03-4.7c-1.04,2-2.67,3.63-4.68,4.66ZM2.26,17.08l-.04,4.7,4.71-.04c-2.01-1.03-3.64-2.66-4.68-4.66ZM17.02,2.26c2.01,1.03,3.64,2.66,4.68,4.66l.03-4.7-4.71.03ZM2.23,2.23l.03,4.7c1.04-2,2.67-3.63,4.68-4.66l-4.71-.03ZM1.58,1.26l10.36.08,10.38-.08v-.23l-10.38-.08-10.36.11v.19Z"/>
  </g>
</svg>