<?xml version="1.0" encoding="UTF-8"?>
<svg id="Layer_2" data-name="Layer 2" xmlns="http://www.w3.org/2000/svg" viewBox="0 0 24 24">
  <g id="_Layer_" data-name="&amp;lt;Layer&amp;gt;">
    <path d="M0,0v24h24V0H0ZM11.52,12.48v2.88h-2.88v-2.88h2.88ZM8.64,11.52v-2.88h2.88v2.88h-2.88ZM12.48,12.48h2.88v2.88h-2.88v-2.88ZM12.48,11.52v-2.88h2.88v2.88h-2.88ZM16.32,8.64h2.88v2.88h-2.88v-2.88ZM16.32,7.68v-2.88h2.88v2.88h-2.88ZM15.36,7.68h-2.88v-2.88h2.88v2.88ZM12.48,3.84V.98c1,.04,1.97.21,2.88.5v2.35h-2.88ZM11.52,3.84h-2.88V1.49c.91-.29,1.88-.46,2.88-.5v2.86ZM11.52,4.8v2.88h-2.88v-2.88h2.88ZM7.68,7.68h-2.88v-2.88h2.88v2.88ZM7.68,8.64v2.88h-2.88v-2.88h2.88ZM3.84,11.52H.98c.04-1,.21-1.97.5-2.88h2.35v2.88ZM3.84,12.48v2.88H1.49c-.29-.91-.46-1.88-.5-2.88h2.86ZM4.8,12.48h2.88v2.88h-2.88v-2.88ZM7.68,16.32v2.88h-2.88v-2.88h2.88ZM8.64,16.32h2.88v2.88h-2.88v-2.88ZM11.52,20.16v2.86c-1-.04-1.97-.21-2.88-.5v-2.35h2.88ZM12.48,20.16h2.88v2.35c-.91.29-1.88.46-2.88.5v-2.86ZM12.48,19.2v-2.88h2.88v2.88h-2.88ZM16.32,16.32h2.88v2.88h-2.88v-2.88ZM16.32,15.36v-2.88h2.88v2.88h-2.88ZM20.16,12.48h2.86c-.04,1-.21,1.97-.5,2.88h-2.35v-2.88ZM20.16,11.52v-2.88h2.35c.29.91.46,1.88.5,2.88h-2.86ZM20.16,7.68v-2.88h.19c.74.86,1.36,1.82,1.81,2.88h-2ZM19.2,3.84h-2.88v-2c1.06.45,2.02,1.07,2.88,1.81v.19ZM16.7.96h2.5v1.46c-.77-.58-1.6-1.08-2.5-1.46ZM7.68,1.84v2h-2.88v-.19c.86-.74,1.82-1.36,2.88-1.81ZM4.8,2.42V.96h2.5c-.9.38-1.73.88-2.5,1.46ZM3.84,4.8v2.88h-2c.45-1.06,1.07-2.02,1.81-2.88h.19ZM.96,7.3v-2.5h1.46c-.58.77-1.08,1.6-1.46,2.5ZM.96,16.7c.38.9.88,1.73,1.46,2.5H.96v-2.5ZM1.84,16.32h2v2.88h-.19c-.74-.86-1.36-1.82-1.81-2.88ZM4.8,20.16h2.88v2c-1.06-.45-2.02-1.07-2.88-1.81v-.19ZM7.3,23.04h-2.5v-1.46c.77.58,1.6,1.08,2.5,1.46ZM16.32,22.16v-2h2.88v.19c-.86.74-1.82,1.36-2.88,1.81ZM19.2,21.58v1.46h-2.5c.9-.38,1.73-.88,2.5-1.46ZM20.16,19.2v-2.88h2c-.45,1.06-1.07,2.02-1.81,2.88h-.19ZM23.04,16.7v2.5h-1.46c.58-.77,1.08-1.6,1.46-2.5ZM23.04,7.3c-.38-.9-.88-1.73-1.46-2.5h1.46v2.5ZM23.04,3.84h-2.27c-.2-.21-.4-.42-.61-.61V.96h2.88v2.88ZM3.84.96v2.27c-.21.2-.42.4-.61.61H.96V.96h2.88ZM.96,20.16h2.27c.2.21.4.42.61.61v2.27H.96v-2.88ZM20.16,23.04v-2.27c.21-.2.42-.4.61-.61h2.27v2.88h-2.88Z"/>
  </g>
</svg>