<?xml version="1.0" encoding="UTF-8"?>
<svg id="Layer_2" data-name="Layer 2" xmlns="http://www.w3.org/2000/svg" viewBox="0 0 24 23.52">
  <g id="_Layer_" data-name="&amp;lt;Layer&amp;gt;">
    <path d="M18.05,1.67C13.29-.24,7.58-1.19,3.77,2.62-.03,7.38-1.94,14.99,2.82,19.75c4.76,3.81,12.37,5.71,17.13.95,4.76-5.71,6.66-15.23-1.9-19.04h0ZM4.73,19.75C-.03,15.94-.98,9.28,2.82,6.42c1.9-1.9,6.66-2.86,8.57,4.76-3.81,0-5.71,1.9-6.66,8.57h0ZM12.34,11.18c0-3.81-1.9-5.71-8.57-6.66C7.58-.24,14.24-1.19,17.1,2.62c1.9,1.9,2.86,6.66-4.76,8.57h0ZM19,3.57c4.76,3.81,5.71,10.47,1.9,13.32-1.9,1.9-6.66,2.86-8.57-4.76,3.81,0,5.71-1.9,6.66-8.57h0ZM5.68,20.7c0-2.86-1.9-6.66,5.71-8.57,0,3.81,1.9,5.71,8.57,6.66-3.81,4.76-9.52,4.76-14.28,1.9h0Z"/>
  </g>
</svg>