<?xml version="1.0" encoding="UTF-8"?>
<svg id="Layer_2" data-name="Layer 2" xmlns="http://www.w3.org/2000/svg" viewBox="0 0 24 24">
  <g id="_Layer_" data-name="&amp;lt;Layer&amp;gt;">
    <g>
      <path d="M6.2,15.85c.3-.52.6-1.05.9-1.59.12-.33.21-.64.28-.95-.89-.44-1.79-.87-2.73-1.31.94-.44,1.84-.88,2.73-1.31-.08-.31-.17-.62-.28-.95-.3-.54-.6-1.07-.9-1.59-1.51-1.23-3.85-1.11-5.19.37-.62,1.32-.93,2.48-1.01,3.47.08,1,.39,2.16,1.01,3.47,1.34,1.48,3.68,1.61,5.19.37Z"/>
      <path d="M10.59,7.57c-.34.69-.67,1.36-1.01,2.02.83-.42,1.63-.84,2.41-1.26-.48-.25-.95-.51-1.41-.76Z"/>
      <path d="M13.41,7.57c-.46.25-.93.5-1.41.76.78.42,1.59.84,2.41,1.26-.33-.66-.67-1.33-1.01-2.02Z"/>
      <path d="M7.57,10.59c.25.46.5.93.76,1.41.42-.78.84-1.59,1.26-2.41-.66.33-1.33.67-2.02,1.01Z"/>
      <path d="M16.43,10.59c-.69-.34-1.36-.67-2.02-1.01.42.83.84,1.63,1.26,2.41.25-.48.51-.95.76-1.41Z"/>
      <path d="M7.54,13.46c-.15.27-.3.54-.45.8-.14.39-.31.79-.5,1.21.46-.51.8-1.18.95-2.02Z"/>
      <path d="M3.81,19.82c1.27-1.6,2.18-3.05,2.78-4.35-.12.14-.26.26-.39.37-.81,1.41-1.61,2.74-2.39,3.98Z"/>
      <path d="M7.57,13.41c.69.34,1.36.67,2.02,1.01-.42-.83-.84-1.63-1.26-2.41-.25.48-.51.95-.76,1.41Z"/>
      <path d="M20.23,4.12s0,0,0,0c.32-.4.67-.82,1.04-1.24-.14.09-.28.18-.43.27-.21.32-.41.63-.62.96Z"/>
      <path d="M14.41,14.41c.66-.33,1.33-.67,2.02-1.01-.25-.46-.5-.93-.76-1.41-.42.78-.84,1.59-1.26,2.41Z"/>
      <path d="M20.85,3.15c.09-.14.18-.29.27-.43-.42.37-.84.72-1.24,1.04,0,0,0,0,0,0,.33-.21.65-.41.96-.62Z"/>
      <path d="M10.59,16.43c.46-.25.93-.5,1.41-.76-.78-.42-1.59-.84-2.41-1.26.33.66.67,1.33,1.01,2.02Z"/>
      <path d="M13.41,16.43c.34-.69.67-1.36,1.01-2.02-.83.42-1.63.84-2.41,1.26.48.25.95.51,1.41.76Z"/>
      <path d="M16.45,10.6c-.07.42-.09.89-.05,1.4.03-.41.11-.85.22-1.31-.06-.03-.11-.06-.17-.09Z"/>
      <path d="M20.19,4.18c-1.27,1.6-2.18,3.05-2.78,4.35.12-.14.26-.26.39-.37.81-1.41,1.61-2.74,2.39-3.98Z"/>
      <path d="M16.45,13.4c.06-.03.11-.06.17-.09-.12-.46-.19-.9-.22-1.31-.04.51-.02.97.05,1.4Z"/>
      <path d="M16.46,10.54c.15-.27.3-.54.45-.8.14-.39.31-.79.5-1.21-.46.51-.8,1.18-.95,2.02Z"/>
      <path d="M16.46,13.46c.15.83.49,1.51.95,2.02-.2-.42-.37-.83-.5-1.21-.15-.27-.3-.53-.45-.8Z"/>
      <path d="M20.19,19.82c-.78-1.24-1.58-2.57-2.39-3.98-.14-.11-.27-.24-.39-.37.61,1.3,1.51,2.75,2.78,4.35Z"/>
      <path d="M7.55,10.6c-.06.03-.11.06-.17.09.12.46.19.9.22,1.31.04-.51.02-.97-.05-1.4Z"/>
      <path d="M7.55,13.4c.07-.42.09-.89.05-1.4-.03.41-.11.85-.22,1.31.06.03.11.06.17.09Z"/>
      <path d="M7.54,10.54c-.15-.83-.49-1.51-.95-2.02.2.42.37.83.5,1.21.15.27.3.53.45.8Z"/>
      <path d="M22.99,15.47c.62-1.32.93-2.48,1.01-3.47-.08-1-.39-2.16-1.01-3.47-1.34-1.48-3.68-1.61-5.19-.37-.3.52-.6,1.05-.9,1.59-.12.33-.21.64-.28.95.89.44,1.79.87,2.73,1.31-.94.44-1.84.88-2.73,1.31.08.31.17.62.28.95.3.54.6,1.07.9,1.59,1.51,1.23,3.85,1.11,5.19-.37Z"/>
      <path d="M3.81,4.18c.78,1.24,1.58,2.57,2.39,3.98.14.11.27.24.39.37-.61-1.3-1.51-2.75-2.78-4.35Z"/>
      <path d="M10.69,7.38c.44-.89.87-1.79,1.31-2.73.44.94.88,1.84,1.31,2.73.31-.08.62-.17.95-.28.54-.3,1.07-.6,1.59-.9,1.23-1.51,1.11-3.85-.37-5.19-1.32-.62-2.48-.93-3.47-1.01-1,.08-2.16.39-3.47,1.01-1.48,1.34-1.61,3.68-.37,5.19.52.3,1.05.6,1.59.9.33.12.64.21.95.28Z"/>
      <path d="M13.4,16.45c-.42-.07-.89-.09-1.4-.05.41.03.85.11,1.31.22.03-.06.06-.11.09-.17Z"/>
      <path d="M10.6,16.45c.03.06.06.11.09.17.46-.12.9-.19,1.31-.22-.51-.04-.97-.02-1.4.05Z"/>
      <path d="M13.46,16.46c.27.15.54.3.8.45.39.14.79.31,1.21.5-.51-.46-1.18-.8-2.02-.95Z"/>
      <path d="M4.18,20.19c1.24-.78,2.57-1.58,3.98-2.39.11-.14.24-.27.37-.39-1.3.61-2.75,1.51-4.35,2.78Z"/>
      <path d="M2.73,21.12c-.76.5-1.48.98-2.17,1.46-.04.36-.09.69-.15,1.01.31-.06.65-.11,1.01-.15.48-.69.97-1.41,1.46-2.17-.74.65-1.51,1.36-2.31,2.16.8-.8,1.51-1.57,2.16-2.31Z"/>
      <path d="M15.47,17.41c.14.12.26.26.37.39,1.41.81,2.74,1.61,3.98,2.39-1.6-1.27-3.05-2.18-4.35-2.78Z"/>
      <path d="M10.54,16.46c-.83.15-1.51.49-2.02.95.42-.2.83-.37,1.21-.5.27-.15.53-.3.8-.45Z"/>
      <path d="M13.31,16.62c-.44.89-.87,1.79-1.31,2.73-.44-.94-.88-1.84-1.31-2.73-.31.08-.62.17-.95.28-.54.3-1.07.6-1.59.9-1.23,1.51-1.11,3.85.37,5.19,1.32.62,2.48.93,3.47,1.01,1-.08,2.16-.39,3.47-1.01,1.48-1.34,1.61-3.68.37-5.19-.52-.3-1.05-.6-1.59-.9-.33-.12-.64-.21-.95-.28Z"/>
      <path d="M19.88,20.23s0,0,0,0c.4.32.82.67,1.24,1.04-.09-.14-.18-.28-.27-.43-.32-.21-.63-.41-.96-.62Z"/>
      <path d="M21.27,21.12c.65.74,1.36,1.51,2.16,2.31-.8-.8-1.57-1.51-2.31-2.16.5.76.98,1.48,1.46,2.17.36.04.69.09,1.01.15-.06-.31-.11-.65-.15-1.01-.69-.48-1.41-.97-2.17-1.46Z"/>
      <path d="M21.27,2.88c.76-.5,1.48-.98,2.17-1.46.04-.36.09-.69.15-1.01-.31.06-.65.11-1.01.15-.48.69-.97,1.41-1.46,2.17.74-.65,1.51-1.36,2.31-2.16-.8.8-1.51,1.57-2.16,2.31Z"/>
      <path d="M20.23,19.88s0,0,0,0c.21.33.41.65.62.96.14.09.29.18.43.27-.37-.42-.72-.84-1.04-1.24Z"/>
      <path d="M13.4,7.55c-.03-.06-.06-.11-.09-.17-.46.12-.9.19-1.31.22.51.04.97.02,1.4-.05Z"/>
      <path d="M10.6,7.55c.42.07.89.09,1.4.05-.41-.03-.85-.11-1.31-.22-.03.06-.06.11-.09.17Z"/>
      <path d="M10.54,7.54c-.27-.15-.54-.3-.8-.45-.39-.14-.79-.31-1.21-.5.51.46,1.18.8,2.02.95Z"/>
      <path d="M19.82,3.81c-1.24.78-2.57,1.58-3.98,2.39-.11.14-.24.27-.37.39,1.3-.61,2.75-1.51,4.35-2.78Z"/>
      <path d="M13.46,7.54c.83-.15,1.51-.49,2.02-.95-.42.2-.83.37-1.21.5-.27.15-.53.3-.8.45Z"/>
      <path d="M8.53,6.59c-.14-.12-.26-.26-.37-.39-1.41-.81-2.74-1.61-3.98-2.39,1.6,1.27,3.05,2.18,4.35,2.78Z"/>
      <path d="M4.12,3.77s0,0,0,0c-.4-.32-.82-.67-1.24-1.04.09.14.18.28.27.43.32.21.63.41.96.62Z"/>
      <path d="M3.77,19.88s0,0,0,0c-.32.4-.67.82-1.04,1.24.14-.09.28-.18.43-.27.21-.32.41-.63.62-.96Z"/>
      <path d="M2.73,2.88c-.65-.74-1.36-1.51-2.16-2.31.8.8,1.57,1.51,2.31,2.16-.5-.76-.98-1.48-1.46-2.17-.36-.04-.69-.09-1.01-.15.06.31.11.65.15,1.01.69.48,1.41.97,2.17,1.46Z"/>
      <path d="M3.15,20.85c-.09.14-.18.29-.27.43.42-.37.84-.72,1.24-1.04,0,0,0,0,0,0-.33.21-.65.41-.96.62Z"/>
      <path d="M3.77,4.12s0,0,0,0c-.21-.33-.41-.65-.62-.96-.14-.09-.29-.18-.43-.27.37.42.72.84,1.04,1.24Z"/>
    </g>
  </g>
</svg>