<?xml version="1.0" encoding="UTF-8"?>
<svg id="Layer_2" data-name="Layer 2" xmlns="http://www.w3.org/2000/svg" viewBox="0 0 15.27 24">
  <g id="_Layer_" data-name="&amp;lt;Layer&amp;gt;">
    <path d="M8.15,24C3.86,24,.66,21.68,0,18.09c-.02-4.08,2.38-8.87,3.81-11.37,1.29-3.29,1.82-5.39,1.83-5.41l.33-1.31.54,1.24s.93,2.12,2.87,5.46c1.9,2.5,5.17,7.26,5.89,11.23.01,1.66-.53,3.05-1.57,4.09-1.27,1.28-3.24,1.98-5.55,1.98ZM6.19,2.73c-.29.96-.79,2.47-1.55,4.39-1.41,2.48-3.74,7.1-3.72,10.89.56,3.05,3.41,5.07,7.24,5.07,2.06,0,3.8-.61,4.9-1.71.86-.87,1.31-2.03,1.31-3.36-.69-3.72-3.89-8.36-5.73-10.78l-.03-.05c-1.15-1.97-1.94-3.5-2.41-4.46Z"/>
  </g>
</svg>