<?xml version="1.0" encoding="UTF-8"?>
<svg id="Layer_2" data-name="Layer 2" xmlns="http://www.w3.org/2000/svg" viewBox="0 0 24 23.79">
  <g id="_Layer_" data-name="&amp;lt;Layer&amp;gt;">
    <path d="M18.01,11.16c-.26.07-.52.11-.78.16-.29-.03-.58-.06-.88-.07.3-.09.59-.19.88-.31,2.18-.14,4.42.34,6.44,1.53l.33-.56c-1.88-1.1-3.98-1.65-6.1-1.64l-.13-.27c-.23.11-.47.2-.7.3-.3.02-.59.05-.89.1.27-.14.53-.3.79-.46,2.11-.56,4.4-.52,6.61.24l.21-.61c-2.1-.73-4.26-.82-6.29-.41l-.19-.25c-.21.16-.44.3-.66.45-.3.08-.59.17-.88.28.47-.39.93-.8,1.35-1.28l-.48-.43c-.62.7-1.32,1.29-2.06,1.8.67-.69,1.27-1.45,1.77-2.3l-.56-.33c-.47.81-1.04,1.52-1.67,2.16.52-.81.96-1.67,1.29-2.6l-.61-.21c-.31.88-.73,1.7-1.22,2.47.36-.9.63-1.84.76-2.82l-.64-.09c-.13.93-.38,1.82-.72,2.68.18-.95.26-1.93.2-2.93l-.64.04c.05.94-.02,1.86-.19,2.75,0-.96-.12-1.93-.37-2.9l-.63.16c.24.9.34,1.81.35,2.71-.2-.94-.5-1.86-.93-2.75l-.58.28c.41.85.7,1.73.89,2.63-.26-.62-.57-1.22-.94-1.8-.57-2.12-.54-4.42.23-6.64l-.61-.21c-.73,2.1-.82,4.26-.41,6.29l-.25.19c.16.21.3.44.45.66.08.29.17.58.27.86-.2-.24-.4-.47-.62-.7-.97-1.96-1.39-4.23-1.06-6.56l-.64-.09c-.31,2.2.02,4.34.83,6.25l-.21.23c.2.18.38.37.56.55.14.27.28.54.44.8-.24-.2-.48-.38-.74-.56-1.34-1.74-2.19-3.87-2.32-6.22l-.64.04c.13,2.22.87,4.25,2.03,5.97l-.16.27c.23.14.45.29.68.44.19.24.38.47.59.69-.28-.15-.56-.29-.85-.41-1.65-1.44-2.9-3.37-3.49-5.65l-.63.16c.56,2.15,1.68,4,3.16,5.46l-.1.29c.25.09.49.19.74.3.23.2.47.39.72.57-.31-.09-.62-.18-.93-.24-1.94-1.12-3.51-2.79-4.51-4.86l-.58.28c.95,1.96,2.39,3.58,4.16,4.75l-.04.3c.26.04.5.09.75.14.26.15.53.29.81.42-.3-.03-.6-.05-.9-.05-2.08-.7-3.97-2.01-5.39-3.89l-.52.39c1.34,1.77,3.08,3.07,5.01,3.85l.02.3c.27-.02.53,0,.79,0,.29.09.58.18.87.25-.31.03-.62.07-.92.13-2.17-.28-4.29-1.19-6.04-2.76l-.43.48c1.66,1.48,3.62,2.4,5.66,2.79l.08.29c.26-.07.52-.12.79-.16.31.04.61.06.92.07-.3.09-.6.19-.9.31-2.19.15-4.44-.34-6.46-1.53l-.33.56c1.86,1.09,3.93,1.65,6.04,1.65.02,0,.04,0,.07,0l.13.26c.23-.11.46-.2.69-.29.31-.02.62-.06.93-.11-.27.15-.54.3-.81.47-2.16.58-4.45.5-6.62-.25l-.21.61c1.29.45,2.62.67,3.94.67.79,0,1.59-.08,2.37-.24l.18.23c.2-.15.41-.29.62-.42.3-.08.59-.18.89-.28-.24.2-.47.4-.69.62-2.01.99-4.27,1.37-6.54,1.05l-.09.64c.56.08,1.12.12,1.67.12,1.59,0,3.14-.32,4.59-.93l.22.19c.17-.19.36-.37.54-.54.27-.14.54-.29.81-.45-.19.24-.38.48-.56.73-1.74,1.34-3.88,2.19-6.22,2.32l.04.64c2.22-.13,4.25-.87,5.97-2.03l.27.16c.14-.23.29-.45.44-.66.24-.19.47-.38.7-.59-.15.27-.28.55-.41.84-1.44,1.65-3.38,2.9-5.65,3.5l.16.62c2.15-.56,4-1.68,5.46-3.16l.29.1c.09-.25.2-.49.3-.74.44-.51.84-1.06,1.18-1.64-1,2.8-3.03,5.06-5.71,6.36l.28.58c2.82-1.37,4.95-3.73,6.01-6.66-.44,2.8-1.91,5.44-4.34,7.27l.39.51c2.6-1.96,4.16-4.79,4.61-7.79.14,2.97-.86,5.83-2.84,8.06l.48.43c2.09-2.35,3.15-5.36,3.01-8.5.71,2.88.28,5.86-1.23,8.42l.56.33c1.59-2.71,2.05-5.87,1.29-8.92,1.25,2.68,1.42,5.69.44,8.5l.61.21c1.03-2.97.86-6.16-.47-9,1.75,2.39,2.5,5.31,2.09,8.25l.64.09c.43-3.1-.35-6.18-2.19-8.69,2.08,1.92,3.45,4.6,3.63,7.64l.64-.04c-.17-2.85-1.33-5.41-3.12-7.37.28.15.56.29.85.41,1.69,1.48,2.9,3.42,3.47,5.64l.63-.16c-.55-2.11-1.64-3.98-3.15-5.47l.1-.29c-.25-.09-.48-.19-.72-.29-.23-.2-.46-.39-.71-.57.29.09.59.17.9.23,1.94,1.12,3.51,2.79,4.51,4.86l.58-.28c-.95-1.96-2.39-3.58-4.16-4.75l.04-.3c-.26-.04-.51-.09-.76-.14-.25-.14-.51-.28-.78-.41.3.03.61.04.91.04,2.12.72,3.97,2.05,5.35,3.88l.52-.39c-1.31-1.74-3.04-3.04-5.01-3.85l-.02-.3c-.26.01-.52,0-.78,0-.28-.09-.56-.18-.84-.25.3-.03.6-.07.9-.13,2.16.29,4.27,1.2,6.02,2.76l.43-.48c-1.66-1.48-3.62-2.39-5.66-2.79l-.08-.3ZM12.02,11.84s0,0-.01,0c0,0-.01,0-.02,0,0,0,0,0-.01,0,0,0,0,0-.01,0,0,0,0,0,0,0,0,0,0,0,0,0,0,0,0,0,0-.01,0,0,0-.02,0-.03,0,0,0,0,.01-.01,0,0,0,0,0,0,0,0,0,0,0,0,.02,0,.04,0,.06,0,0,0,0,0,0,0,.01.02.03.03.04.05,0,0-.01.01-.02.02-.02,0-.03.02-.05.03Z"/>
  </g>
</svg>