<?xml version="1.0" encoding="UTF-8"?>
<svg id="Layer_2" data-name="Layer 2" xmlns="http://www.w3.org/2000/svg" viewBox="0 0 25 23.43">
  <g id="_Layer_" data-name="&amp;lt;Layer&amp;gt;">
    <path d="M22.99,7.4s0,0,0,0L10.99.47c-1.29-.75-2.98-.6-4.74.42C2.8,2.88,0,7.74,0,11.71c0,2.04.71,3.57,2.01,4.32l12,6.93c.54.31,1.16.47,1.81.47.91,0,1.91-.3,2.93-.89,3.45-1.99,6.25-6.85,6.25-10.83,0-2.04-.71-3.57-2.01-4.32ZM2.51,15.17c-.97-.56-1.51-1.79-1.51-3.45C1,8.05,3.58,3.59,6.75,1.76c.87-.5,1.69-.75,2.43-.75.48,0,.93.11,1.32.33l9.83,5.68s-.03.01-.05.01c-.29.06-.59.15-.89.26-.06.02-.13.05-.19.08-.31.13-.63.27-.94.46-3.45,1.99-6.25,6.85-6.25,10.83,0,.37.03.71.08,1.04,0,.07.02.14.03.21.05.32.12.61.22.89,0,.02,0,.04.01.05L2.51,15.17ZM18.25,21.67c-1.44.83-2.77.98-3.74.42-.97-.56-1.51-1.79-1.51-3.45,0-3.66,2.58-8.13,5.75-9.96.2-.12.4-.22.6-.31.06-.03.11-.05.17-.07.14-.06.28-.11.41-.16.06-.02.12-.04.19-.06.13-.04.26-.07.39-.09.06-.01.12-.02.17-.03.14-.02.27-.03.4-.03.04,0,.08,0,.12,0,.21,0,.42.03.61.07.04,0,.08.02.12.03.2.06.38.13.56.23.97.56,1.51,1.79,1.51,3.45,0,3.66-2.58,8.13-5.75,9.96Z"/>
  </g>
</svg>