<?xml version="1.0" encoding="UTF-8"?>
<svg id="Layer_2" data-name="Layer 2" xmlns="http://www.w3.org/2000/svg" viewBox="0 0 21.96 24">
  <g id="_Layer_" data-name="&amp;lt;Layer&amp;gt;">
    <path d="M11.23,0H0v24h21.96V0h-10.72ZM10.72,1.96H2.3V.84h8.43v1.12ZM10.72,2.47v9.28H2.3V2.47h8.43ZM10.72,12.26v9.28H2.3v-9.28h8.43ZM10.72,22.04v1.12H2.3v-1.12h8.43ZM11.23,22.04h8.43v1.12h-8.43v-1.12ZM11.23,21.53v-9.28h8.43v9.28h-8.43ZM11.23,11.74V2.47h8.43v9.28h-8.43ZM11.23,1.96V.84h8.43v1.12h-8.43ZM.81.84h.98v1.12h-.98V.84ZM1.79,2.47v9.28h-.98V2.47h.98ZM1.79,12.26v9.28h-.98v-9.28h.98ZM1.79,22.04v1.12h-.98v-1.12h.98ZM21.15,23.16h-.98v-1.12h.98v1.12ZM20.17,21.53v-9.28h.98v9.28h-.98ZM20.17,11.74V2.47h.98v9.28h-.98ZM20.17,1.96V.84h.98v1.12h-.98Z"/>
  </g>
</svg>