<?xml version="1.0" encoding="UTF-8"?>
<svg id="Layer_2" data-name="Layer 2" xmlns="http://www.w3.org/2000/svg" viewBox="0 0 24 18.53">
  <g id="_Layer_" data-name="&amp;lt;Layer&amp;gt;">
    <g>
      <path d="M16.1,17.16c-4.36,0-7.9-3.54-7.9-7.9s3.54-7.9,7.9-7.9,7.9,3.54,7.9,7.9-3.54,7.9-7.9,7.9ZM16.1,2.12c-3.94,0-7.14,3.2-7.14,7.14s3.2,7.14,7.14,7.14,7.14-3.2,7.14-7.14-3.2-7.14-7.14-7.14Z"/>
      <g>
        <path d="M4.48,18.53c-2.47,0-4.48-2.01-4.48-4.48s2.01-4.48,4.48-4.48,4.48,2.01,4.48,4.48-2.01,4.48-4.48,4.48ZM4.48,10.33c-2.05,0-3.72,1.67-3.72,3.72s1.67,3.72,3.72,3.72,3.72-1.67,3.72-3.72-1.67-3.72-3.72-3.72Z"/>
        <path d="M4.48,8.96C2.01,8.96,0,6.95,0,4.48S2.01,0,4.48,0s4.48,2.01,4.48,4.48-2.01,4.48-4.48,4.48ZM4.48.76C2.43.76.76,2.43.76,4.48s1.67,3.72,3.72,3.72,3.72-1.67,3.72-3.72S6.53.76,4.48.76Z"/>
      </g>
    </g>
  </g>
</svg>