<?xml version="1.0" encoding="UTF-8"?>
<svg id="Layer_2" data-name="Layer 2" xmlns="http://www.w3.org/2000/svg" viewBox="0 0 24 24">
  <g id="_Layer_" data-name="&amp;lt;Layer&amp;gt;">
    <path d="M17.03,19.26l6.97-2.35-2.33-7.01-1.12.38c-.04-.27-.09-.53-.15-.8h1.06s-.06-7.4-.06-7.4l-7.35.06v1.19c-.26-.05-.52-.08-.79-.1l.32-1.02L6.56,0l-2.21,7.05,1.13.36c-.13.24-.24.49-.34.74l-.86-.62L0,13.54l5.98,4.29.69-.97c.19.19.39.38.59.56l-.85.63,4.37,5.94,5.91-4.4-.7-.95c.24-.12.48-.25.71-.39l.34,1.01ZM12.78,17.89c-.3.05-.61.07-.91.1-.55-.16-1.08-.35-1.59-.6v-.02s1.67-1.24,1.67-1.24l.82,1.12v.65ZM6.4,13.56c-.14-.27-.26-.55-.37-.84-.02-.57,0-1.15.08-1.7h.02s1.69,1.21,1.69,1.21l-.8,1.13-.61.21ZM16.2,5.85c.27.13.53.3.79.46.35.45.67.92.93,1.42h-.02s-2.07.03-2.07.03v-1.39s.36-.53.36-.53ZM12.72,11.44l-.24.08-.15-.2.15-.21.24.08v.26ZM15.19,11.96l.2.06-.35.12-.02-.05.17-.13ZM14.46,9.89v-.35s1.06,0,1.06,0l-.65.49-.41-.13ZM14.1,9.19h-.05s-.07-.21-.07-.21l.12-.17v.37ZM11.79,9.04l-.33-.1.32-1.02.26.78-.25.35ZM8.51,6.13c.21-.22.45-.42.68-.62.54-.2,1.08-.36,1.64-.45v.02s-.62,1.99-.62,1.99l-1.32-.42-.38-.52ZM11.02,9.17l-.02.05h-.22s-.12-.16-.12-.16l.36.11ZM10.17,11.33l-.2.28-.87-.62h.81s.25.34.25.34ZM10.05,12.11l.04.03-.06.21-.19.06.21-.3ZM11.83,13.59l.21.28-.85.63.24-.78.4-.14ZM12.52,13.95l.04-.03.18.13v.21s-.22-.3-.22-.3ZM14.48,12.7l.33-.11.34,1.01-.66-.47v-.43ZM16.91,13.37l1.31-.44.61.19c-.04.3-.12.6-.19.9-.32.48-.67.93-1.06,1.33h-.01s-.66-1.99-.66-1.99ZM21.79,15.81l-2.19.74c.28-.58.51-1.19.68-1.8.27-.42.51-.87.72-1.33l.8,2.4ZM18.85,10.86l-.64.22-1.28-.41,1.57-1.17h.1c.12.45.21.9.26,1.36ZM19.67,6.19c-.46-.45-.96-.85-1.49-1.2-.32-.39-.66-.76-1.04-1.1l2.51-.02.02,2.32ZM14.07,5.14v.68s-.77,1.1-.77,1.1l-.62-1.86.03-.09c.46.02.91.08,1.36.17ZM9.9,2.91c-.57.31-1.1.66-1.6,1.05-.46.19-.92.4-1.36.66l.76-2.41,2.2.7ZM7.18,7.95l.64.2.8,1.09-1.95.02-.08-.06c.16-.43.36-.85.59-1.25ZM3.78,11.24c.11.64.28,1.26.5,1.85.03.5.09,1,.2,1.51l-2.05-1.47,1.34-1.89ZM7.71,15.4l.39-.55,1.27-.43-.59,1.87-.08.06c-.36-.29-.69-.6-1-.94ZM9.77,19.67c.64.09,1.28.12,1.91.09.48.12.98.22,1.49.27l-2.02,1.5-1.37-1.87ZM14.92,17.2l-.4-.54v-1.35s1.58,1.14,1.58,1.14l.03.09c-.38.25-.79.47-1.2.67Z"/>
  </g>
</svg>