<?xml version="1.0" encoding="UTF-8"?>
<svg id="Layer_2" data-name="Layer 2" xmlns="http://www.w3.org/2000/svg" viewBox="0 0 24 24">
  <g id="_Layer_" data-name="&amp;lt;Layer&amp;gt;">
    <path d="M18,11.5h-5.5V0h-.5C5.38,0,0,5.38,0,12s5.38,12,12,12,12-5.38,12-12v-.5h-6ZM16.98,12.5c-.25,2.52-2.39,4.5-4.98,4.5-2.76,0-5-2.24-5-5,0-2.59,1.98-4.72,4.5-4.98v5.48h5.48ZM12,23c-6.07,0-11-4.93-11-11S5.67,1.27,11.5,1.01v5.01c-3.07.26-5.5,2.83-5.5,5.97,0,3.31,2.69,6,6,6s5.72-2.43,5.97-5.5h5.01c-.26,5.83-5.09,10.5-10.99,10.5Z"/>
  </g>
</svg>