<?xml version="1.0" encoding="UTF-8"?>
<svg id="Layer_2" data-name="Layer 2" xmlns="http://www.w3.org/2000/svg" viewBox="0 0 24 24">
  <g id="_Layer_" data-name="&amp;lt;Layer&amp;gt;">
    <g>
      <path d="M11.99,24c-1.24,0-2.48-.15-3.69-.44-2.31-.98-4.38-2.5-6-4.41C.99,16.99.2,14.52,0,12.01c.2-2.53.99-5,2.29-7.15C3.92,2.93,5.99,1.41,8.28.44c2.44-.59,5-.59,7.42,0,2.31.98,4.38,2.5,6,4.41,1.31,2.17,2.1,4.63,2.3,7.14h0s0,.02,0,.02c-.2,2.51-.99,4.97-2.29,7.13-1.63,1.93-3.7,3.45-6,4.42-1.22.29-2.48.44-3.73.44ZM12.01.24c-1.23,0-2.45.14-3.65.43-2.24.95-4.28,2.45-5.87,4.33C1.22,7.11.45,9.54.25,12.01c.2,2.45.98,4.88,2.25,7,1.58,1.86,3.62,3.37,5.88,4.32,2.36.57,4.88.56,7.26,0,2.24-.95,4.28-2.45,5.87-4.33,1.26-2.1,2.04-4.52,2.24-6.99-.2-2.47-.98-4.89-2.25-7.01-1.58-1.87-3.62-3.37-5.88-4.32-1.18-.28-2.39-.42-3.61-.42Z"/>
      <path d="M11.99,22.93c-1.13,0-2.26-.13-3.36-.39-2.1-.9-3.99-2.29-5.47-4.02-1.18-1.98-1.9-4.23-2.09-6.51.2-2.3.92-4.55,2.08-6.51,1.5-1.75,3.38-3.14,5.47-4.03,2.23-.52,4.56-.52,6.76,0,2.1.9,3.99,2.29,5.47,4.02,1.18,1.98,1.9,4.23,2.09,6.51h0s0,.02,0,.02c-.2,2.28-.92,4.53-2.08,6.49-1.5,1.75-3.38,3.14-5.47,4.03-1.12.26-2.26.39-3.4.39ZM12.01,1.32c-1.12,0-2.24.13-3.32.38-2.03.87-3.88,2.24-5.34,3.94-1.13,1.92-1.84,4.13-2.04,6.37.19,2.22.9,4.43,2.05,6.37,1.45,1.68,3.3,3.05,5.35,3.93,2.15.5,4.44.5,6.61,0,2.03-.87,3.88-2.24,5.34-3.94,1.13-1.91,1.84-4.12,2.03-6.36-.19-2.24-.9-4.45-2.05-6.38-1.45-1.69-3.3-3.05-5.35-3.93-1.07-.25-2.18-.38-3.29-.38Z"/>
      <path d="M11.99,21.86c-1.02,0-2.04-.11-3.03-.34-1.89-.83-3.6-2.08-4.94-3.63-1.05-1.8-1.7-3.82-1.89-5.88.19-2.08.84-4.11,1.88-5.88,1.36-1.57,3.06-2.82,4.93-3.64,2.01-.46,4.12-.46,6.11,0,1.89.83,3.6,2.08,4.94,3.63,1.05,1.8,1.7,3.82,1.89,5.88h0s0,.02,0,.02c-.19,2.06-.84,4.08-1.88,5.86-1.36,1.57-3.06,2.82-4.93,3.64-1.01.23-2.04.35-3.07.35ZM12.01,2.39c-1.01,0-2.02.11-3,.33-1.82.8-3.49,2.03-4.81,3.55-1.01,1.73-1.65,3.72-1.83,5.74.19,2,.83,3.99,1.85,5.74,1.31,1.5,2.98,2.73,4.82,3.54,1.93.44,4,.44,5.95,0,1.82-.8,3.49-2.03,4.81-3.55,1.01-1.72,1.64-3.71,1.83-5.73-.19-2.02-.83-4.01-1.85-5.75-1.31-1.51-2.98-2.74-4.82-3.54-.96-.22-1.96-.33-2.96-.33Z"/>
      <path d="M11.99,20.79c-.91,0-1.81-.1-2.7-.29-1.71-.76-3.19-1.85-4.41-3.24-.94-1.63-1.5-3.39-1.69-5.25.19-1.88.75-3.64,1.68-5.25,1.24-1.41,2.72-2.5,4.4-3.25,1.83-.4,3.65-.4,5.45,0,1.71.76,3.19,1.85,4.41,3.24.94,1.63,1.5,3.39,1.69,5.25h0s0,.03,0,.03c-.19,1.86-.75,3.62-1.68,5.23-1.24,1.41-2.72,2.5-4.4,3.25-.92.2-1.83.3-2.75.3ZM12.01,3.45c-.89,0-1.78.1-2.67.29-1.63.73-3.08,1.8-4.28,3.16-.89,1.56-1.45,3.29-1.63,5.11.18,1.8.74,3.52,1.64,5.1,1.19,1.34,2.64,2.41,4.29,3.15,1.74.38,3.53.38,5.3,0,1.63-.73,3.08-1.8,4.28-3.16.89-1.56,1.44-3.28,1.63-5.1-.18-1.82-.74-3.54-1.64-5.12-1.19-1.34-2.64-2.41-4.29-3.15-.87-.19-1.74-.28-2.63-.28Z"/>
      <path d="M11.99,19.73c-.79,0-1.59-.08-2.37-.25-1.5-.68-2.8-1.64-3.88-2.85-.82-1.44-1.31-2.99-1.49-4.62.18-1.65.67-3.2,1.47-4.62,1.1-1.23,2.4-2.19,3.87-2.86,1.61-.34,3.21-.34,4.8,0,1.5.68,2.8,1.64,3.88,2.85.82,1.45,1.31,2.99,1.49,4.62h0s0,.03,0,.03c-.18,1.63-.67,3.17-1.47,4.59-1.1,1.23-2.4,2.19-3.87,2.86-.81.17-1.62.26-2.42.26ZM12.01,4.52c-.78,0-1.57.08-2.35.24-1.41.65-2.69,1.59-3.75,2.77-.77,1.37-1.25,2.89-1.43,4.48.17,1.57.66,3.08,1.44,4.47,1.05,1.16,2.32,2.1,3.76,2.76,1.52.32,3.09.32,4.64,0,1.42-.65,2.69-1.59,3.75-2.77.76-1.37,1.25-2.88,1.43-4.46-.18-1.59-.66-3.1-1.44-4.49-1.05-1.16-2.32-2.1-3.76-2.76-.76-.16-1.52-.23-2.29-.23Z"/>
      <path d="M11.99,18.66c-.68,0-1.37-.07-2.04-.2-1.29-.61-2.41-1.43-3.35-2.46-.69-1.26-1.12-2.59-1.29-3.98.17-1.43.6-2.76,1.27-3.99.96-1.05,2.08-1.88,3.34-2.47,1.39-.28,2.78-.28,4.14,0,1.29.6,2.41,1.43,3.35,2.46.69,1.26,1.12,2.59,1.29,3.98h0s0,.03,0,.03c-.17,1.4-.59,2.73-1.27,3.96-.96,1.05-2.08,1.88-3.34,2.47-.7.14-1.4.21-2.1.21ZM12.01,5.59c-.67,0-1.35.07-2.02.2-1.2.57-2.3,1.38-3.22,2.38-.64,1.18-1.06,2.48-1.22,3.85.16,1.34.58,2.64,1.24,3.84.91.98,2,1.79,3.23,2.37,1.3.25,2.65.26,3.99,0,1.2-.57,2.3-1.38,3.22-2.38.64-1.18,1.06-2.47,1.22-3.83-.17-1.36-.58-2.66-1.24-3.86-.91-.98-2-1.79-3.23-2.37-.65-.13-1.3-.19-1.96-.19Z"/>
      <path d="M12,17.59c-.58,0-1.15-.05-1.73-.16h-.03c-1.05-.52-1.99-1.21-2.79-2.07l-.02-.03c-.55-1.04-.91-2.16-1.07-3.33v-.02s0-.02,0-.02c.16-1.17.52-2.29,1.07-3.33l.02-.03c.8-.85,1.74-1.54,2.79-2.06h.03c1.15-.22,2.31-.22,3.45-.01h.03c1.05.52,1.99,1.21,2.79,2.07l.02.03c.55,1.04.91,2.16,1.07,3.33v.02s0,.02,0,.02c-.16,1.17-.52,2.29-1.07,3.33l-.02.03c-.8.85-1.74,1.54-2.79,2.06h-.03c-.57.12-1.15.17-1.73.17ZM10.33,17.19c1.1.2,2.22.2,3.33,0,1.01-.49,1.92-1.16,2.69-1.98.53-1,.88-2.08,1.03-3.21-.15-1.13-.5-2.21-1.03-3.21-.78-.82-1.68-1.49-2.69-1.98-1.1-.2-2.22-.2-3.33,0-1.01.5-1.92,1.16-2.69,1.98-.53,1-.88,2.08-1.03,3.21.15,1.13.5,2.21,1.03,3.21.78.82,1.68,1.49,2.69,1.98Z"/>
      <path d="M12,16.53c-.47,0-.93-.04-1.4-.12h-.04c-.84-.44-1.6-1-2.26-1.68l-.02-.03c-.43-.84-.72-1.75-.86-2.69v-.02s0-.02,0-.02c.14-.94.43-1.85.86-2.69l.02-.03c.66-.68,1.42-1.24,2.26-1.66h.04c.93-.17,1.87-.17,2.79-.01h.04c.84.44,1.6,1,2.26,1.68l.02.03c.43.85.72,1.75.86,2.69v.02s0,.02,0,.02c-.14.94-.43,1.84-.86,2.69l-.02.03c-.66.68-1.42,1.24-2.26,1.66h-.04c-.46.09-.93.13-1.4.13ZM10.66,16.17c.89.15,1.79.15,2.67,0,.8-.41,1.53-.95,2.16-1.59.41-.81.69-1.68.83-2.58-.14-.9-.42-1.77-.83-2.58-.63-.65-1.36-1.18-2.16-1.59-.89-.15-1.79-.15-2.67,0-.8.41-1.53.95-2.16,1.59-.41.81-.69,1.68-.83,2.58.14.9.42,1.77.83,2.58.63.65,1.36,1.18,2.16,1.59Z"/>
      <path d="M12,15.47c-.36,0-.71-.03-1.07-.08h-.04c-.63-.35-1.21-.78-1.72-1.28l-.02-.03c-.32-.65-.54-1.34-.66-2.05v-.02s0-.02,0-.02c.12-.71.34-1.4.66-2.05l.02-.03c.51-.5,1.09-.93,1.72-1.27h.04c.71-.12,1.42-.12,2.13-.01h.04c.63.35,1.21.78,1.72,1.28l.02.03c.32.65.54,1.34.66,2.05v.02s0,.02,0,.02c-.12.71-.34,1.4-.66,2.05l-.02.03c-.51.5-1.09.93-1.73,1.27h-.04c-.35.06-.71.09-1.07.09ZM10.99,15.15c.67.09,1.35.09,2.02,0,.6-.32,1.15-.73,1.63-1.2.3-.62.51-1.27.62-1.95-.12-.68-.33-1.33-.62-1.95-.49-.48-1.04-.88-1.63-1.2-.67-.09-1.35-.09-2.02,0-.6.32-1.15.73-1.63,1.2-.3.62-.51,1.27-.62,1.95.12.67.33,1.33.62,1.95.49.48,1.04.88,1.63,1.2Z"/>
      <path d="M12,14.41c-.25,0-.49-.01-.74-.04l-.05-.02c-.43-.24-.83-.54-1.19-.87l-.03-.04c-.2-.45-.36-.93-.45-1.42v-.02s0-.02,0-.02c.1-.49.25-.97.45-1.42l.03-.04c.36-.34.76-.63,1.19-.88l.05-.02c.49-.06.98-.06,1.47,0l.05.02c.43.25.83.54,1.19.88l.03.04c.2.45.36.93.45,1.42v.02s0,.02,0,.02c-.1.49-.25.96-.45,1.42l-.03.04c-.36.34-.76.63-1.19.87l-.05.02c-.24.03-.49.04-.73.04ZM11.32,14.13c.45.05.91.05,1.36,0,.4-.23.77-.5,1.1-.81.19-.42.33-.86.42-1.32-.09-.45-.23-.9-.42-1.32-.34-.31-.71-.58-1.1-.81-.45-.05-.91-.05-1.36,0-.4.23-.77.5-1.1.81-.19.42-.33.86-.42,1.32.09.45.23.9.42,1.32.34.31.71.58,1.1.81Z"/>
      <path d="M12,13.36c-.13,0-.27,0-.4-.01l-.06-.02c-.23-.14-.45-.3-.65-.48l-.03-.05c-.1-.25-.18-.51-.25-.78v-.03s0-.03,0-.03c.06-.26.15-.52.25-.78l.03-.05c.2-.18.42-.34.65-.48l.06-.02c.27-.02.54-.02.8,0l.06.02c.23.14.45.3.65.48l.03.05c.1.25.19.51.25.78v.03s0,.03,0,.03c-.06.26-.15.52-.25.78l-.03.05c-.21.18-.42.34-.65.48l-.06.02c-.13,0-.27.01-.4.01ZM11.65,13.1c.23.02.47.02.71,0,.2-.13.39-.27.57-.42.09-.22.16-.45.22-.68-.06-.23-.13-.46-.22-.68-.18-.15-.37-.29-.57-.42-.23-.02-.47-.02-.71,0-.2.13-.39.27-.57.42-.09.22-.16.45-.22.68.06.23.13.46.22.68.18.15.37.29.57.42Z"/>
    </g>
  </g>
</svg>