<?xml version="1.0" encoding="UTF-8"?>
<svg id="Layer_2" data-name="Layer 2" xmlns="http://www.w3.org/2000/svg" viewBox="0 0 25 23.43">
  <g id="_Layer_" data-name="&amp;lt;Layer&amp;gt;">
    <path d="M18.75.89c-1.76-1.02-3.45-1.17-4.74-.42L2.01,7.39s0,0,0,0c-1.29.75-2.01,2.28-2.01,4.32,0,3.98,2.8,8.83,6.25,10.82,1.02.59,2.02.89,2.93.89.66,0,1.27-.16,1.81-.47l12-6.93c1.29-.75,2.01-2.28,2.01-4.32,0-3.98-2.8-8.84-6.25-10.83ZM10.49,22.09c-.97.56-2.3.41-3.74-.42-3.17-1.83-5.75-6.3-5.75-9.96,0-1.66.54-2.89,1.51-3.45.17-.1.36-.17.55-.22.05-.01.09-.03.14-.04.19-.04.38-.07.59-.07.07,0,.13,0,.2,0,.1,0,.21.01.31.03.08.01.15.03.23.04.11.02.22.05.33.08.08.02.15.04.23.07.13.04.25.09.38.14.06.03.13.05.19.08.2.09.39.19.59.3,3.17,1.83,5.75,6.3,5.75,9.96,0,1.66-.54,2.89-1.51,3.45ZM22.49,15.17l-9.83,5.68s0-.03.01-.05c.09-.28.17-.58.22-.9.01-.07.02-.14.03-.21.05-.33.08-.68.08-1.05,0-3.98-2.8-8.83-6.25-10.83-.32-.18-.63-.33-.94-.45-.07-.03-.13-.06-.2-.08-.3-.11-.59-.2-.88-.25-.02,0-.04-.01-.06-.02L14.51,1.34c.97-.56,2.3-.41,3.74.42,3.17,1.83,5.75,6.3,5.75,9.96,0,1.66-.54,2.89-1.51,3.45Z"/>
  </g>
</svg>