<?xml version="1.0" encoding="UTF-8"?>
<svg id="Layer_2" data-name="Layer 2" xmlns="http://www.w3.org/2000/svg" viewBox="0 0 7.24 24">
  <g id="_Layer_" data-name="&amp;lt;Layer&amp;gt;">
    <path d="M3.62,0C1.62,0,0,1.62,0,3.62v16.76c0,2,1.62,3.62,3.62,3.62s3.62-1.62,3.62-3.62V3.62c0-2-1.62-3.62-3.62-3.62ZM3.62,1c1.44,0,2.62,1.17,2.62,2.62s-1.17,2.62-2.62,2.62-2.62-1.17-2.62-2.62S2.17,1,3.62,1ZM6.24,20.08v.3c0,1.44-1.17,2.62-2.62,2.62s-2.62-1.17-2.62-2.62v-.3s.02.02.03.03c.09.09.2.17.3.26.08.07.15.14.24.2.11.08.24.14.36.2.09.05.17.1.26.14.14.06.29.1.45.14.08.02.16.06.24.08.24.05.49.08.74.08s.5-.03.74-.08c.08-.02.16-.05.24-.08.15-.04.3-.08.45-.14.09-.04.17-.09.26-.14.12-.07.25-.12.36-.2.09-.06.16-.13.24-.2.1-.08.21-.16.3-.26.01-.01.02-.02.03-.03ZM6.24,17.29v.3c0,1.44-1.17,2.62-2.62,2.62s-2.62-1.17-2.62-2.62v-.3s.02.02.03.03c.09.09.2.17.3.26.08.07.15.14.24.2.11.08.24.14.36.2.09.05.17.1.26.14.14.06.29.1.45.14.08.02.16.06.24.08.24.05.49.08.74.08s.5-.03.74-.08c.08-.02.16-.05.24-.08.15-.04.3-.08.45-.14.09-.04.17-.09.26-.14.12-.07.25-.12.36-.2.09-.06.16-.13.24-.2.1-.08.21-.16.3-.26.01-.01.02-.02.03-.03ZM6.24,14.5v.3c0,1.44-1.17,2.62-2.62,2.62s-2.62-1.17-2.62-2.62v-.3s.02.02.03.03c.09.09.2.17.3.26.08.07.15.14.24.2.11.08.24.14.36.2.09.05.17.1.26.14.14.06.29.1.45.14.08.02.16.06.24.08.24.05.49.08.74.08s.5-.03.74-.08c.08-.02.16-.05.24-.08.15-.04.3-.08.45-.14.09-.04.17-.09.26-.14.12-.07.25-.12.36-.2.09-.06.16-.13.24-.2.1-.08.21-.16.3-.26.01-.01.02-.02.03-.03ZM6.24,11.7v.3c0,1.44-1.17,2.62-2.62,2.62s-2.62-1.17-2.62-2.62v-.3s.02.02.03.03c.09.09.2.17.3.26.08.07.15.14.24.2.11.08.24.14.36.2.09.05.17.1.26.14.14.06.29.1.45.14.08.02.16.06.24.08.24.05.49.08.74.08s.5-.03.74-.08c.08-.02.16-.05.24-.08.15-.04.3-.08.45-.14.09-.04.17-.09.26-.14.12-.07.25-.12.36-.2.09-.06.16-.13.24-.2.1-.08.21-.16.3-.26.01-.01.02-.02.03-.03ZM6.24,8.91v.3c0,1.44-1.17,2.62-2.62,2.62s-2.62-1.17-2.62-2.62v-.3s.02.02.03.03c.09.09.2.17.3.26.08.07.15.14.24.2.11.08.24.14.36.2.09.05.17.1.26.14.14.06.29.1.45.14.08.02.16.06.24.08.24.05.49.08.74.08s.5-.03.74-.08c.08-.02.16-.05.24-.08.15-.04.3-.08.45-.14.09-.04.17-.09.26-.14.12-.07.25-.12.36-.2.09-.06.16-.13.24-.2.1-.08.21-.16.3-.26.01-.01.02-.02.03-.03ZM6.24,6.11v.3c0,1.44-1.17,2.62-2.62,2.62s-2.62-1.17-2.62-2.62v-.3s.02.02.03.03c.09.09.2.17.3.26.08.07.15.14.24.2.11.08.24.14.36.2.09.05.17.1.26.14.14.06.29.1.45.14.08.02.16.06.24.08.24.05.49.08.74.08s.5-.03.74-.08c.08-.02.16-.05.24-.08.15-.04.3-.08.45-.14.09-.04.17-.09.26-.14.12-.07.25-.12.36-.2.09-.06.16-.13.24-.2.1-.08.21-.16.3-.26.01-.01.02-.02.03-.03Z"/>
  </g>
</svg>