<?xml version="1.0" encoding="UTF-8"?>
<svg id="Layer_2" data-name="Layer 2" xmlns="http://www.w3.org/2000/svg" viewBox="0 0 24 24">
  <g id="_Layer_" data-name="&amp;lt;Layer&amp;gt;">
    <path d="M22.15,17.86c2.47-2.32,2.47-9.4,0-11.72,1.98-.11,1.78-.37-.63-.45-.69-.37-1.51-.42-2.49-.01-.2,0-.41,0-.62.01,0-.02-.01-.02-.02,0-.03,0-.05,0-.08,0,0-.03,0-.05,0-.08.02,0,.02-.01,0-.02,0-.21,0-.42.01-.62.4-.97.35-1.8-.01-2.49-.08-2.41-.34-2.61-.45-.63C15.54-.62,8.46-.62,6.14,1.85c-.11-1.98-.37-1.78-.45.63-.37.69-.42,1.51-.01,2.49,0,.2,0,.41.01.62-.02,0-.02.01,0,.02,0,.03,0,.05,0,.08-.03,0-.05,0-.08,0,0-.02-.01-.02-.02,0-.21,0-.42,0-.62-.01-.97-.4-1.8-.35-2.49.01-2.41.08-2.61.34-.63.45-2.47,2.32-2.47,9.4,0,11.72-1.98.11-1.78.37.63.45.69.37,1.51.42,2.49.01.2,0,.41,0,.62-.01,0,.02.01.02.02,0,.03,0,.05,0,.08,0,0,.03,0,.05,0,.08-.02,0-.02.01,0,.02,0,.21,0,.42-.01.62-.4.97-.35,1.8.01,2.49.08,2.41.34,2.61.45.63,2.32,2.47,9.4,2.47,11.72,0,.11,1.98.37,1.78.45-.63.37-.69.42-1.51.01-2.49,0-.2,0-.41-.01-.62.02,0,.02-.01,0-.02,0-.03,0-.05,0-.08.03,0,.05,0,.08,0,0,.02.01.02.02,0,.21,0,.42,0,.62.01.97.4,1.8.35,2.49-.01,2.41-.08,2.61-.34.63-.45ZM18.5,17.83s-.02,0-.03,0c.03-.54.05-1.44.07-2.54,1.87.04,3.23,0,4.04-.06-.38,1.2-.99,2.15-1.84,2.59-.63,0-1.39,0-2.24.01ZM17.65,17.85s0-.01-.01-.02c.01,0,.03,0,.04,0,0,0,0,.02,0,.02,0,0-.02,0-.03,0ZM17.5,17.85c-.39.01-.78.02-1.22.04.51-.02.9-.04,1.21-.06,0,0,0,.01,0,.02ZM17.51,17.66c-.29-.38-.63-.78-1.05-1.2.42.42.82.76,1.2,1.05,0,.05,0,.11,0,.16-.05,0-.1,0-.16,0ZM17.82,17.64s.01,0,.02.01c0,0,0,.02,0,.03,0,0-.02,0-.02,0,0-.01,0-.03,0-.04ZM18.25,16.28c.03.65.05,1.12.08,1.45,0,0-.02,0-.03,0-.01-.46-.03-.93-.05-1.44ZM17.85,17.5s-.01,0-.02,0c.02-.31.04-.7.06-1.21-.02.43-.03.82-.04,1.22ZM18.33,17.74s0,0,0,0c0,0,0,0,0,0,0,0,0,0,0,0ZM17.61,15.28c-.32-.02-.76-.04-1.33-.07.47.02.9.03,1.33.05,0,0,0,.01,0,.02ZM6.4,9.37c.51.02,1.24.04,2.1.05,0,.67,0,1.39-.01,2.12-.85.01-1.57.03-2.08.05,0-.76,0-1.52-.01-2.22ZM17.59,12.24c-.32-.02-.75-.04-1.31-.07.47.02.89.03,1.31.04v.02ZM16.28,11.82c.56-.02.99-.05,1.31-.07v.02c-.42.01-.85.03-1.31.04ZM17.59,11.59c-.5-.02-1.23-.04-2.08-.05,0-.73,0-1.45-.01-2.12.86-.01,1.59-.03,2.1-.05,0,.7-.01,1.46-.01,2.22ZM14.56,11.53c-.66,0-1.36,0-2.08-.01,0-.71,0-1.42-.01-2.08.72,0,1.43,0,2.1-.01,0,.67,0,1.38-.01,2.1ZM12.46,8.48c-.01-.85-.03-1.57-.05-2.08.76,0,1.52,0,2.22-.01-.02.51-.04,1.24-.05,2.1-.67,0-1.39,0-2.12-.01ZM12.18,7.72c.02-.47.03-.89.04-1.31h.02c-.02.32-.04.75-.07,1.31ZM11.82,7.72c-.02-.56-.05-.99-.07-1.31h.02c.01.42.03.85.04,1.31ZM11.54,8.48c-.73,0-1.45,0-2.12.01-.01-.86-.03-1.59-.05-2.1.7,0,1.46.01,2.22.01-.02.5-.04,1.23-.05,2.08ZM11.53,9.44c0,.66,0,1.36-.01,2.08-.71,0-1.42,0-2.08.01,0-.72,0-1.43-.01-2.1.67,0,1.38,0,2.1.01ZM6.41,11.76c.32.02.75.04,1.31.07-.47-.02-.89-.03-1.31-.04,0,0,0-.01,0-.02ZM7.72,12.18c-.56.02-.99.05-1.31.07,0,0,0-.01,0-.02.42-.01.85-.03,1.31-.04ZM6.41,12.41c.5.02,1.23.04,2.08.05,0,.73,0,1.45.01,2.12-.86.01-1.59.03-2.1.05,0-.7.01-1.46.01-2.22ZM9.44,12.47c.66,0,1.36,0,2.08.01,0,.71,0,1.42.01,2.08-.72,0-1.43,0-2.1.01,0-.67,0-1.38.01-2.1ZM11.54,15.52c.01.85.03,1.57.05,2.08-.76,0-1.52,0-2.22.01.02-.51.04-1.24.05-2.1.67,0,1.39,0,2.12.01ZM11.82,16.28c-.02.47-.03.89-.04,1.31,0,0-.01,0-.02,0,.02-.32.04-.75.07-1.31ZM12.18,16.28c.02.56.05.99.07,1.31,0,0-.01,0-.02,0-.01-.42-.03-.85-.04-1.31ZM12.46,15.52c.73,0,1.45,0,2.12-.01.01.86.03,1.59.05,2.1-.7,0-1.46-.01-2.22-.01.02-.5.04-1.23.05-2.08ZM12.47,14.56c0-.66,0-1.36.01-2.08.71,0,1.42,0,2.08-.01,0,.72,0,1.43.01,2.1-.67,0-1.38,0-2.1-.01ZM15.52,12.46c.85-.01,1.57-.03,2.08-.05,0,.76,0,1.52.01,2.22-.51-.02-1.24-.04-2.1-.05,0-.67,0-1.39.01-2.12ZM16.28,14.86c.57-.02,1-.05,1.32-.07,0,0,0,.01,0,.02-.43.01-.85.03-1.33.05ZM18.55,12.25c2.27.04,3.78-.01,4.48-.11-.01.94-.13,1.88-.36,2.72-.8-.07-2.18-.11-4.14-.07,0-.8.01-1.67.01-2.54ZM18.55,11.75c0-.88,0-1.75-.01-2.54,1.96.04,3.34,0,4.14-.07.23.84.35,1.78.36,2.72-.71-.09-2.22-.15-4.48-.11ZM17.61,9.21c-.32-.02-.75-.04-1.32-.07.47.02.9.03,1.33.05,0,0,0,.01,0,.02ZM16.28,8.79c.57-.02,1.01-.05,1.33-.07,0,0,0,.01,0,.02-.43.01-.86.03-1.33.05ZM17.68,6.15s0,.02,0,.02c-.01,0-.03,0-.04,0,0,0,0-.01.01-.02,0,0,.02,0,.03,0ZM17.67,6.33s0,.1,0,.16c-.38.29-.78.63-1.2,1.05.42-.42.76-.82,1.05-1.2.05,0,.11,0,.16,0ZM17.82,6.32s.02,0,.02,0c0,0,0,.02,0,.03,0,0-.01,0-.02.01,0-.01,0-.03,0-.04ZM18.3,6.28s.02,0,.03,0c-.02.33-.05.8-.08,1.45.02-.51.04-.98.05-1.44ZM17.85,6.5c.01.39.02.78.04,1.22-.02-.51-.04-.9-.06-1.21,0,0,.01,0,.02,0ZM18.33,6.26s0,0,0,0c0,0,0,0,0,0,0,0,0,0,0,0ZM17.84,6.19s-.02,0-.03,0c0-.01,0-.02,0-.03,0,0,.02,0,.03,0,0,0,0,.02,0,.03ZM17.74,5.68s0,0,0,0c0,0,0,0,0,0,0,0,0,0,0,0ZM17.72,5.7c-.46.01-.93.03-1.44.05.65-.03,1.12-.05,1.45-.08,0,0,0,.02,0,.03ZM17.5,6.15s0,.01,0,.02c-.31-.02-.7-.04-1.21-.06.43.02.82.03,1.22.04ZM17.38,6.34c-.31.49-.73,1-1.28,1.55.55-.55,1.07-.97,1.55-1.28-.02.5-.03,1.17-.04,1.94-.51-.02-1.25-.04-2.12-.05-.01-.87-.03-1.61-.05-2.12.77-.01,1.44-.03,1.94-.04ZM15.21,7.72c.02-.47.03-.9.05-1.33,0,0,.01,0,.02,0-.02.32-.04.76-.07,1.33ZM14.86,7.72c-.02-.57-.05-1-.07-1.32,0,0,.01,0,.02,0,.01.43.03.85.05,1.33ZM12.25,5.45c.04-2.27-.01-3.78-.11-4.48.94.01,1.88.13,2.72.36-.07.8-.11,2.18-.07,4.14-.8,0-1.67-.01-2.54-.01ZM11.75,5.45c-.88,0-1.75,0-2.54.01.04-1.96,0-3.34-.07-4.14.84-.23,1.78-.35,2.72-.36-.09.71-.15,2.22-.11,4.48ZM9.21,6.39c-.02.32-.04.75-.07,1.32.02-.47.03-.9.05-1.33,0,0,.01,0,.02,0ZM8.79,7.72c-.02-.57-.05-1.01-.07-1.33,0,0,.01,0,.02,0,.01.43.03.86.05,1.33ZM8.51,8.51c-.87.01-1.61.03-2.12.05-.01-.77-.03-1.44-.04-1.94.49.31,1,.73,1.55,1.28-.55-.55-.97-1.07-1.28-1.55.5.02,1.17.03,1.94.04-.02.51-.04,1.25-.05,2.12ZM6.35,6.15s0,.01.01.02c-.01,0-.03,0-.04,0,0,0,0-.02,0-.02,0,0,.02,0,.03,0ZM6.5,6.15c.39-.01.78-.02,1.22-.04-.51.02-.9.04-1.21.06,0,0,0-.01,0-.02ZM6.49,6.34c.29.38.63.78,1.05,1.2-.42-.42-.82-.76-1.2-1.05,0-.05,0-.11,0-.16.05,0,.1,0,.16,0ZM6.18,6.36s-.01,0-.02-.01c0,0,0-.02,0-.03,0,0,.02,0,.02,0,0,.01,0,.03,0,.04ZM6.15,6.5s.01,0,.02,0c-.02.31-.04.7-.06,1.21.02-.43.03-.82.04-1.22ZM5.75,7.72c-.03-.65-.05-1.12-.08-1.45,0,0,.02,0,.03,0,.01.46.03.93.05,1.44ZM6.28,5.7s0-.02,0-.03c.33.02.8.05,1.45.08-.51-.02-.98-.04-1.44-.05ZM6.26,5.68s0,0,0,0c0,0,0,0,0,0,0,0,0,0,0,0ZM6.19,6.16s0,.02,0,.03c-.01,0-.02,0-.03,0,0,0,0-.02,0-.03,0,0,.02,0,.03,0ZM5.68,6.26s0,0,0,0c0,0,0,0,0,0,0,0,0,0,0,0ZM6.39,8.72c.32.02.76.04,1.33.07-.47-.02-.9-.03-1.33-.05,0,0,0-.01,0-.02ZM7.72,9.14c-.57.02-1,.05-1.32.07,0,0,0-.01,0-.02.43-.01.85-.03,1.33-.05ZM5.45,11.75c-2.27-.04-3.78.01-4.48.11.01-.94.13-1.88.36-2.72.8.07,2.18.11,4.14.07,0,.8-.01,1.67-.01,2.54ZM5.45,12.25c0,.88,0,1.75.01,2.54-1.96-.04-3.34,0-4.14.07-.23-.84-.35-1.78-.36-2.72.71.09,2.22.15,4.48.11ZM6.39,14.79c.32.02.75.04,1.32.07-.47-.02-.9-.03-1.33-.05,0,0,0-.01,0-.02ZM7.72,15.21c-.57.02-1.01.05-1.33.07,0,0,0-.01,0-.02.43-.01.86-.03,1.33-.05ZM6.32,17.85s0-.02,0-.02c.01,0,.03,0,.04,0,0,0,0,.01-.01.02,0,0-.02,0-.03,0ZM6.33,17.67s0-.1,0-.16c.38-.29.78-.63,1.2-1.05-.42.42-.76.82-1.05,1.2-.05,0-.11,0-.16,0ZM6.18,17.68s-.02,0-.02,0c0,0,0-.02,0-.03,0,0,.01,0,.02-.01,0,.01,0,.03,0,.04ZM5.7,17.72s-.02,0-.03,0c.02-.33.05-.8.08-1.45-.02.51-.04.98-.05,1.44ZM6.15,17.5c-.01-.39-.02-.78-.04-1.22.02.51.04.9.06,1.21,0,0-.01,0-.02,0ZM5.67,17.74s0,0,0,0c0,0,0,0,0,0,0,0,0,0,0,0ZM6.16,17.81s.02,0,.03,0c0,.01,0,.02,0,.03,0,0-.02,0-.03,0,0,0,0-.02,0-.03ZM6.26,18.32s0,0,0,0c0,0,0,0,0,0,0,0,0,0,0,0ZM6.28,18.3c.46-.01.93-.03,1.44-.05-.65.03-1.12.05-1.45.08,0,0,0-.02,0-.03ZM6.5,17.85s0-.01,0-.02c.31.02.7.04,1.21.06-.43-.02-.82-.03-1.22-.04ZM6.62,17.66c.31-.49.73-1,1.28-1.55-.55.55-1.07.97-1.55,1.28.02-.5.03-1.17.04-1.94.51.02,1.25.04,2.12.05.01.87.03,1.61.05,2.12-.77.01-1.44.03-1.94.04ZM8.79,16.28c-.02.47-.03.9-.05,1.33,0,0-.01,0-.02,0,.02-.32.04-.76.07-1.33ZM9.14,16.28c.02.57.05,1,.07,1.32,0,0-.01,0-.02,0-.01-.43-.03-.85-.05-1.33ZM11.75,18.55c-.04,2.27.01,3.78.11,4.48-.94-.01-1.88-.13-2.72-.36.07-.8.11-2.18.07-4.14.8,0,1.67.01,2.54.01ZM12.25,18.55c.88,0,1.75,0,2.54-.01-.04,1.96,0,3.34.07,4.14-.84.23-1.78.35-2.72.36.09-.71.15-2.22.11-4.48ZM14.79,17.61c.02-.32.04-.75.07-1.32-.02.47-.03.9-.05,1.33,0,0-.01,0-.02,0ZM15.21,16.28c.02.57.05,1.01.07,1.33,0,0-.01,0-.02,0-.01-.43-.03-.86-.05-1.33ZM15.49,15.49c.87-.01,1.61-.03,2.12-.05.01.77.03,1.44.04,1.94-.49-.31-1-.73-1.55-1.28.55.55.97,1.07,1.28,1.55-.5-.02-1.17-.03-1.94-.04.02-.51.04-1.25.05-2.12ZM17.72,18.3s0,.02,0,.03c-.33-.02-.8-.05-1.45-.08.51.02.98.04,1.44.05ZM17.74,18.32s0,0,0,0c0,0,0,0,0,0,0,0,0,0,0,0ZM17.81,17.84s0-.02,0-.03c.01,0,.02,0,.03,0,0,0,0,.02,0,.03,0,0-.02,0-.03,0ZM22.58,8.78c-.81-.07-2.17-.1-4.04-.06-.01-1.1-.04-2-.07-2.54,0,0,.02,0,.03,0,.85.02,1.61.02,2.24.01.85.44,1.46,1.39,1.84,2.59ZM17.81,3.27c0,.63,0,1.39.01,2.24,0,0,0,.02,0,.03-.54-.03-1.44-.05-2.54-.07.04-1.87,0-3.23-.06-4.04,1.2.38,2.15.99,2.59,1.84ZM8.78,1.42c-.07.81-.1,2.17-.06,4.04-1.1.01-2,.04-2.54.07,0,0,0-.02,0-.03.02-.85.02-1.61.01-2.24.44-.85,1.39-1.46,2.59-1.84ZM5.5,6.17s.02,0,.03,0c-.03.54-.05,1.44-.07,2.54-1.87-.04-3.23,0-4.04.06.38-1.2.99-2.15,1.84-2.59.63,0,1.39,0,2.24-.01ZM1.42,15.22c.81.07,2.17.1,4.04.06.01,1.1.04,2,.07,2.54,0,0-.02,0-.03,0-.85-.02-1.61-.02-2.24-.01-.85-.44-1.46-1.39-1.84-2.59ZM6.19,20.73c0-.63,0-1.39-.01-2.24,0,0,0-.02,0-.03.54.03,1.44.05,2.54.07-.04,1.87,0,3.23.06,4.04-1.2-.38-2.15-.99-2.59-1.84ZM15.22,22.58c.07-.81.1-2.17.06-4.04,1.1-.01,2-.04,2.54-.07,0,0,0,.02,0,.03-.02.85-.02,1.61-.01,2.24-.44.85-1.39,1.46-2.59,1.84Z"/>
  </g>
</svg>