<?xml version="1.0" encoding="UTF-8"?>
<svg id="Layer_2" data-name="Layer 2" xmlns="http://www.w3.org/2000/svg" viewBox="0 0 18.22 24.98">
  <g id="_Layer_" data-name="&amp;lt;Layer&amp;gt;">
    <path d="M15.45,23.47c1.79-1.03,2.77-2.43,2.77-3.95V5.46c0-1.51-.98-2.92-2.77-3.95C11.95-.5,6.27-.5,2.77,1.51.98,2.55,0,3.95,0,5.46v14.06c0,1.51.98,2.92,2.77,3.95,1.75,1.01,4.04,1.51,6.34,1.51s4.59-.5,6.34-1.51ZM3.27,2.38c1.61-.93,3.72-1.39,5.84-1.39s4.23.46,5.84,1.39c1.46.85,2.27,1.94,2.27,3.08s-.81,2.24-2.27,3.08c-3.22,1.86-8.46,1.86-11.68,0-1.46-.85-2.27-1.94-2.27-3.08s.81-2.24,2.27-3.08ZM1,19.52V7.98s.03.03.04.04c.2.23.43.44.68.65.05.04.11.08.16.13.27.21.56.42.89.6,3.5,2.02,9.18,2.02,12.68,0,.33-.19.61-.39.88-.6.06-.04.11-.09.17-.13.25-.21.48-.42.68-.65.01-.01.03-.03.04-.04v11.54c0,1.14-.81,2.24-2.27,3.08-3.22,1.86-8.46,1.86-11.68,0-1.46-.85-2.27-1.94-2.27-3.08Z"/>
  </g>
</svg>