<?xml version="1.0" encoding="UTF-8"?>
<svg id="Layer_2" data-name="Layer 2" xmlns="http://www.w3.org/2000/svg" viewBox="0 0 12.48 24">
  <g id="_Layer_" data-name="&amp;lt;Layer&amp;gt;">
    <g>
      <path d="M6.72,24h-.6c-3.38,0-6.12-2.75-6.12-6.12V0h.6c3.38,0,6.12,2.75,6.12,6.12v17.88ZM.96.97v16.91c0,2.72,2.12,4.96,4.8,5.15V6.12C5.76,3.4,3.64,1.16.96.97Z"/>
      <path d="M12.48,24h-.6c-3.38,0-6.12-2.75-6.12-6.12V0h.6c3.38,0,6.12,2.75,6.12,6.12v17.88ZM6.72.97v16.91c0,2.72,2.12,4.96,4.8,5.15V6.12c0-2.72-2.12-4.96-4.8-5.15Z"/>
    </g>
  </g>
</svg>