<?xml version="1.0" encoding="UTF-8"?>
<svg id="Layer_2" data-name="Layer 2" xmlns="http://www.w3.org/2000/svg" viewBox="0 0 22.11 24">
  <g id="_Layer_" data-name="&amp;lt;Layer&amp;gt;">
    <path d="M11.29,1.85l-.06-1.85-.06,1.85-.06-1.85-.06,1.85-.06-1.85-.06,1.85-.06-1.85-.06,1.85-1.24-1.85-1.23,1.85-1.24-1.85-1.24,1.85-1.24-1.85-1.24,1.85-1.24-1.85-.56,1.55-1.6.73,1.85,1.35-1.85,1.35,1.85,1.36-1.85,1.35,1.85,1.36-1.85,1.36,1.85,1.36-1.85.06,1.85.06-1.85.06,1.85.06-1.85.06,1.85.06-1.85.06,1.85.06-1.85,1.35,1.85,1.35-1.85,1.35,1.85,1.36-1.85,1.35,1.85,1.36-1.85,1.36,1.61.74.55,1.54,1.23-1.85,1.24,1.85,1.24-1.85,1.24,1.85,1.24-1.85,1.24,1.85,1.24-1.85.06,1.85.06-1.85.06,1.85.06-1.85.06,1.85.06-1.85.06,1.85.06-1.85,1.24,1.85,1.23-1.85,1.24,1.85,1.24-1.85,1.24,1.85,1.24-1.85,1.24,1.85.56-1.55,1.6-.73-1.85-1.35,1.85-1.35-1.85-1.36,1.85-1.35-1.85-1.36,1.85-1.36-1.85-1.36,1.85-.06-1.85-.06,1.85-.06-1.85-.06,1.85-.06-1.85-.06,1.85-.06-1.85-.06,1.85-1.35-1.85-1.35,1.85-1.35-1.85-1.36,1.85-1.35-1.85-1.36,1.85-1.36-1.61-.74-.55-1.54-1.23,1.85-1.24-1.85-1.24,1.85-1.24-1.85-1.24,1.85L12.21.06l-.92,1.79ZM10.95,3.64l-1.1-1.84-.97,1.85-.97-1.85-.97,1.85-.97-1.85-.97,1.85-.98-1.85-1.1,1.84,1.04-1.04-1.85-.13,1.85-.13-1.85-.13,1.85-.13-1.85-.13,1.85-.13-1.05-1.05,1.1,1.84.97-1.85.97,1.85.97-1.85.97,1.85.97-1.85.98,1.85,1.1-1.84-1.04,1.04,1.85.13-1.85.13,1.85.13-1.85.13,1.85.13-1.84.23,1.04.95ZM11.5,2.58l-1.6,1.69,1.85,1.07-1.85,1.07,1.85,1.07-1.85,1.07,1.85,1.07-1.85,1.07,1.61,1.69-1.66-1.54-.97,1.85-.97-1.85-.97,1.85-.97-1.85-.97,1.85-.98-1.85-1.66,1.55,1.6-1.69-1.85-1.07,1.85-1.07-1.85-1.07,1.85-1.07-1.85-1.07,1.85-1.07-1.61-1.69,1.66,1.54.97-1.85.97,1.85.97-1.85.97,1.85.97-1.85,1.19,1.82,1.45-1.52ZM11.5,11.61l-1.6,1.69,1.85,1.07-1.85,1.07,1.85,1.07-1.85,1.07,1.85,1.07-1.85,1.07,1.61,1.69-1.66-1.54-.97,1.85-.97-1.85-.97,1.85-.97-1.85-.97,1.85-.98-1.85-1.66,1.55,1.6-1.69-1.85-1.07,1.85-1.07-1.85-1.07,1.85-1.07-1.85-1.07,1.85-1.07-1.61-1.69,1.66,1.54.97-1.85.97,1.85.97-1.85.97,1.85.97-1.85,1.19,1.82,1.45-1.52ZM10.94,20.35l-1.04,1.04,1.85.13-1.85.13,1.85.13-1.85.13,1.85.13-1.85.13,1.05,1.05-1.1-1.84-.97,1.85-.97-1.85-.97,1.85-.97-1.85-.97,1.85-.98-1.85-1.1,1.84,1.04-1.04-1.85-.13,1.85-.13-1.85-.13,1.85-.13-1.85-.13,1.85-.13-1.05-1.05,1.1,1.84.97-1.85.97,1.85.97-1.85.97,1.85.97-1.85,1.35,1.77.72-1.76ZM11.17,20.36l1.1,1.84.97-1.85.97,1.85.97-1.85.97,1.85.97-1.85.98,1.85,1.1-1.84-1.04,1.04,1.85.13-1.85.13,1.85.13-1.85.13,1.85.13-1.85.13,1.05,1.05-1.1-1.84-.97,1.85-.97-1.85-.97,1.85-.97-1.85-.97,1.85-.98-1.85-1.1,1.84,1.04-1.04-1.85-.13,1.85-.13-1.85-.13,1.85-.13-1.85-.13,1.84-.23-1.04-.95ZM10.61,21.42l1.6-1.69-1.85-1.07,1.85-1.07-1.85-1.07,1.85-1.07-1.85-1.07,1.85-1.07-1.61-1.69,1.66,1.54.97-1.85.97,1.85.97-1.85.97,1.85.97-1.85.98,1.85,1.66-1.55-1.6,1.69,1.85,1.07-1.85,1.07,1.85,1.07-1.85,1.07,1.85,1.07-1.85,1.07,1.61,1.69-1.66-1.54-.97,1.85-.97-1.85-.97,1.85-.97-1.85-.97,1.85-1.19-1.82-1.45,1.52ZM10.61,12.39l1.6-1.69-1.85-1.07,1.85-1.07-1.85-1.07,1.85-1.07-1.85-1.07,1.85-1.07-1.61-1.69,1.66,1.54.97-1.85.97,1.85.97-1.85.97,1.85.97-1.85.98,1.85,1.66-1.55-1.6,1.69,1.85,1.07-1.85,1.07,1.85,1.07-1.85,1.07,1.85,1.07-1.85,1.07,1.61,1.69-1.66-1.54-.97,1.85-.97-1.85-.97,1.85-.97-1.85-.97,1.85-1.19-1.82-1.45,1.52ZM11.17,3.65l1.04-1.04-1.85-.13,1.85-.13-1.85-.13,1.85-.13-1.85-.13,1.85-.13-1.05-1.05,1.1,1.84.97-1.85.97,1.85.97-1.85.97,1.85.97-1.85.98,1.85,1.1-1.84-1.04,1.04,1.85.13-1.85.13,1.85.13-1.85.13,1.85.13-1.85.13,1.05,1.05-1.1-1.84-.97,1.85-.97-1.85-.97,1.85-.97-1.85-.97,1.85-1.35-1.77-.72,1.76ZM.96,1.1l.82,1.51.11-1.85.11,1.85.11-1.85.11,1.85.11-1.85.12,1.85.8-1.55-1.6.75,1.85.13-1.85.13,1.85.13-1.85.13,1.85.13-1.85.13,1.63.72-.82-1.51-.11,1.85-.11-1.85-.11,1.85-.11-1.85-.11,1.85-.12-1.85-.8,1.55,1.6-.75-1.85-.13,1.85-.13-1.85-.13,1.85-.13-1.85-.13,1.63-.72-1.42-.14ZM3.49,3.1l-1.84,1.17,1.85,1.07-1.85,1.07,1.85,1.07-1.85,1.07,1.85,1.07-1.85,1.07,1.84,1.17-1.03-1.02-.11,1.85-.11-1.85-.11,1.85-.11-1.85-.11,1.85-.12-1.85-1.03,1.02,1.84-1.17-1.85-1.07,1.85-1.07-1.85-1.07,1.85-1.07-1.85-1.07,1.85-1.07-1.84-1.17,1.03,1.02.11-1.85.11,1.85.11-1.85.11,1.85.11-1.85.2,1.84.95-1.02ZM3.49,12.14l-1.84,1.17,1.85,1.07-1.85,1.07,1.85,1.07-1.85,1.07,1.85,1.07-1.85,1.07,1.84,1.17-1.03-1.02-.11,1.85-.11-1.85-.11,1.85-.11-1.85-.11,1.85-.12-1.85-1.03,1.02,1.84-1.17-1.85-1.07,1.85-1.07-1.85-1.07,1.85-1.07-1.85-1.07,1.85-1.07-1.84-1.17,1.03,1.02.11-1.85.11,1.85.11-1.85.11,1.85.11-1.85.2,1.84.95-1.02ZM3.25,20.65l-1.6.75,1.85.13-1.85.13,1.85.13-1.85.13,1.85.13-1.85.13,1.63.72-.82-1.51-.11,1.85-.11-1.85-.11,1.85-.11-1.85-.11,1.85-.12-1.85-.8,1.55,1.6-.75-1.85-.13,1.85-.13-1.85-.13,1.85-.13-1.85-.13,1.85-.13-1.63-.72.82,1.51.11-1.85.11,1.85.11-1.85.11,1.85.11-1.85.64,1.69.28-1.39ZM21.15,22.9l-.82-1.51-.11,1.85-.11-1.85-.11,1.85-.11-1.85-.11,1.85-.12-1.85-.8,1.55,1.6-.75-1.85-.13,1.85-.13-1.85-.13,1.85-.13-1.85-.13,1.85-.13-1.63-.72.82,1.51.11-1.85.11,1.85.11-1.85.11,1.85.11-1.85.12,1.85.8-1.55-1.6.75,1.85.13-1.85.13,1.85.13-1.85.13,1.85.13-1.63.72,1.42.14ZM18.62,20.9l1.84-1.17-1.85-1.07,1.85-1.07-1.85-1.07,1.85-1.07-1.85-1.07,1.85-1.07-1.84-1.17,1.03,1.02.11-1.85.11,1.85.11-1.85.11,1.85.11-1.85.12,1.85,1.03-1.02-1.84,1.17,1.85,1.07-1.85,1.07,1.85,1.07-1.85,1.07,1.85,1.07-1.85,1.07,1.84,1.17-1.03-1.02-.11,1.85-.11-1.85-.11,1.85-.11-1.85-.11,1.85-.2-1.84-.95,1.02ZM18.62,11.86l1.84-1.17-1.85-1.07,1.85-1.07-1.85-1.07,1.85-1.07-1.85-1.07,1.85-1.07-1.84-1.17,1.03,1.02.11-1.85.11,1.85.11-1.85.11,1.85.11-1.85.12,1.85,1.03-1.02-1.84,1.17,1.85,1.07-1.85,1.07,1.85,1.07-1.85,1.07,1.85,1.07-1.85,1.07,1.84,1.17-1.03-1.02-.11,1.85-.11-1.85-.11,1.85-.11-1.85-.11,1.85-.2-1.84-.95,1.02ZM18.86,3.35l1.6-.75-1.85-.13,1.85-.13-1.85-.13,1.85-.13-1.85-.13,1.85-.13-1.63-.72.82,1.51.11-1.85.11,1.85.11-1.85.11,1.85.11-1.85.12,1.85.8-1.55-1.6.75,1.85.13-1.85.13,1.85.13-1.85.13,1.85.13-1.85.13,1.63.72-.82-1.51-.11,1.85-.11-1.85-.11,1.85-.11-1.85-.11,1.85-.64-1.69-.28,1.39Z"/>
  </g>
</svg>