<?xml version="1.0" encoding="UTF-8"?>
<svg id="Layer_2" data-name="Layer 2" xmlns="http://www.w3.org/2000/svg" viewBox="0 0 24 24">
  <g id="_Layer_" data-name="&amp;lt;Layer&amp;gt;">
    <path d="M12,18.68C-.14-10.02-10.02-.14,18.68,12-10.02,24.14-.14,34.02,12,5.32c12.14,28.7,22.02,18.82-6.68,6.68C34.02-.14,24.14-10.02,12,18.68ZM12.76,5.39c2.14,12.09-6.24,3.71,5.85,5.85-2.14-12.09,6.24-3.71-5.85-5.85ZM7.44,12c12.35,2.09,6.65,7.8,4.56-4.56-2.09,12.35-7.8,6.65,4.56,4.56-12.35-2.09-6.65-7.8-4.56,4.56,2.09-12.35,7.8-6.65-4.56-4.56ZM5.39,11.24c12.09-2.14,3.71,6.24,5.85-5.85C-.85,7.53,7.53-.85,5.39,11.24ZM11.24,18.61c-2.14-12.09,6.24-3.71-5.85-5.85,2.14,12.09-6.24,3.71,5.85,5.85ZM18.61,12.76c-12.09,2.14-3.71-6.24-5.85,5.85,12.09-2.14,3.71,6.24,5.85-5.85Z"/>
  </g>
</svg>