<?xml version="1.0" encoding="UTF-8"?>
<svg id="Layer_2" data-name="Layer 2" xmlns="http://www.w3.org/2000/svg" viewBox="0 0 24 21.53">
  <g id="_Layer_" data-name="&amp;lt;Layer&amp;gt;">
    <path d="M12,21.53c-.9,0-1.83-.12-2.74-.37h-3.26l-1.64-2.84c-1.3-1.31-2.24-2.95-2.73-4.73l-1.63-2.82,1.63-2.82c.49-1.79,1.43-3.42,2.73-4.73L6,.37h3.26c1.87-.5,3.73-.48,5.53,0h3.21l1.61,2.78c.67.67,1.25,1.42,1.72,2.23l.25.43-.32.19,2.75,4.77-1.63,2.82c-.49,1.79-1.43,3.42-2.73,4.73l-1.64,2.84h-3.26c-.92.25-1.84.37-2.74.37ZM6.57,20.16l2.88.02c1.71.47,3.38.47,5.1,0l.13-.02h2.75l1.46-2.5c1.21-1.21,2.09-2.73,2.54-4.4l.05-.12,1.38-2.38-2.96-5.13.31-.18c-.38-.59-.83-1.14-1.34-1.64l-.08-.1-1.35-2.34-2.84-.02c-1.67-.46-3.39-.48-5.14,0l-.13.02h-2.75l-1.46,2.5c-1.21,1.21-2.09,2.73-2.54,4.4l-.05.12-1.38,2.38,1.43,2.5c.45,1.67,1.33,3.19,2.54,4.4l.08.1,1.38,2.4Z"/>
  </g>
</svg>