<?xml version="1.0" encoding="UTF-8"?>
<svg xmlns="http://www.w3.org/2000/svg" xmlns:xlink="http://www.w3.org/1999/xlink" viewBox="0 0 24 24">
  <defs>
    <style>
      .cls-1 {
        fill: none;
      }

      .cls-2 {
        fill: #ff3f44;
      }

      .cls-3 {
        mix-blend-mode: hard-light;
        opacity: .64;
      }

      .cls-4, .cls-5 {
        mix-blend-mode: multiply;
      }

      .cls-4, .cls-6, .cls-7 {
        opacity: .66;
      }

      .cls-5 {
        opacity: .38;
      }

      .cls-6 {
        mix-blend-mode: color-burn;
      }

      .cls-8 {
        fill: #bbff8c;
      }

      .cls-9 {
        isolation: isolate;
      }

      .cls-7 {
        mix-blend-mode: hue;
      }

      .cls-10 {
        fill: #0017f2;
      }

      .cls-11 {
        fill: #ff4737;
      }

      .cls-12 {
        opacity: .63;
      }

      .cls-13 {
        fill: #00c7f2;
      }

      .cls-14 {
        clip-path: url(#clippath);
      }
    </style>
    <clipPath id="clippath">
      <circle class="cls-1" cx="12" cy="12" r="12"/>
    </clipPath>
  </defs>
  <g class="cls-9">
    <g id="Layer_2" data-name="Layer 2">
      <g id="_Layer_" data-name="&amp;lt;Layer&amp;gt;">
        <g class="cls-14">
          <path class="cls-10" d="M24.5,12.5c0,3.3-1.35,6.3-3.52,8.48-2.18,2.17-5.18,3.52-8.48,3.52s-6.3-1.35-8.48-3.52C1.85,18.8.5,15.8.5,12.5.5,5.9,5.9.5,12.5.5c3.3,0,6.3,1.35,8.48,3.52,2.17,2.18,3.52,5.18,3.52,8.48Z"/>
          <g class="cls-12">
            <circle class="cls-11" cx="8.5" cy="2.5" r="3"/>
            <path d="M8.5,6c-1.93,0-3.5-1.57-3.5-3.5s1.57-3.5,3.5-3.5,3.5,1.57,3.5,3.5-1.57,3.5-3.5,3.5ZM8.5,0c-1.38,0-2.5,1.12-2.5,2.5s1.12,2.5,2.5,2.5,2.5-1.12,2.5-2.5-1.12-2.5-2.5-2.5Z"/>
          </g>
          <g class="cls-5">
            <polygon class="cls-8" points="-4.51 13 -7.77 7.65 -4.76 2.15 1.51 2 4.77 7.35 1.76 12.85 -4.51 13"/>
            <path d="M-4.78,13.51l-3.56-5.85L-5.06,1.65l6.84-.16,3.56,5.85-3.28,6.01-6.84.16ZM-7.19,7.63l2.96,4.86,5.69-.13,2.73-4.99L1.23,2.51l-5.69.13-2.73,4.99Z"/>
          </g>
          <g class="cls-3">
            <polygon class="cls-8" points="-.11 17.92 -3.36 12.56 -.36 7.07 5.91 6.92 9.17 12.27 6.16 17.77 -.11 17.92"/>
            <path d="M-.38,18.43l-3.56-5.85L-.66,6.57l6.84-.16,3.56,5.85-3.28,6.01-6.84.16ZM-2.79,12.55L.17,17.41l5.69-.13,2.73-4.99-2.96-4.86L-.06,7.56l-2.73,4.99Z"/>
          </g>
          <g class="cls-4">
            <polygon class="cls-8" points="-.11 23.92 -3.36 18.56 -.36 13.07 5.91 12.92 9.17 18.27 6.16 23.77 -.11 23.92"/>
            <path d="M-.38,24.43l-3.56-5.85L-.66,12.57l6.84-.16,3.56,5.85-3.28,6.01-6.84.16ZM-2.79,18.55L.17,23.41l5.69-.13,2.73-4.99-2.96-4.86L-.06,13.56l-2.73,4.99Z"/>
          </g>
          <g class="cls-6">
            <polygon class="cls-8" points="5.89 26.92 2.64 21.56 5.64 16.07 11.91 15.92 15.17 21.27 12.16 26.77 5.89 26.92"/>
            <path d="M5.62,27.43l-3.56-5.85,3.28-6.01,6.84-.16,3.56,5.85-3.28,6.01-6.84.16ZM3.21,21.55l2.96,4.86,5.69-.13,2.73-4.99-2.96-4.86-5.69.13-2.73,4.99Z"/>
          </g>
          <g class="cls-6">
            <polygon class="cls-8" points="3.89 12.92 .64 7.56 3.64 2.07 9.91 1.92 13.17 7.27 10.16 12.77 3.89 12.92"/>
            <path d="M3.62,13.43L.06,7.58,3.34,1.57l6.84-.16,3.56,5.85-3.28,6.01-6.84.16ZM1.21,7.55l2.96,4.86,5.69-.13,2.73-4.99-2.96-4.86-5.69.13L1.21,7.55Z"/>
          </g>
          <g class="cls-7">
            <polygon class="cls-8" points="6.89 9.92 3.64 4.56 6.64 -.93 12.91 -1.08 16.17 4.27 13.16 9.77 6.89 9.92"/>
            <path d="M6.62,10.43l-3.56-5.85L6.34-1.43l6.84-.16,3.56,5.85-3.28,6.01-6.84.16ZM4.21,4.55l2.96,4.86,5.69-.13,2.73-4.99L12.63-.57l-5.69.13-2.73,4.99Z"/>
          </g>
          <g class="cls-6">
            <polygon class="cls-8" points="11.4 23.72 6.69 15.98 11.04 8.03 20.09 7.82 24.8 15.56 20.46 23.51 11.4 23.72"/>
            <path d="M11.12,24.23l-5.01-8.23,4.62-8.45,9.63-.22,5.01,8.23-4.62,8.46-9.63.22ZM7.27,15.97l4.41,7.25,8.48-.2,4.07-7.44-4.41-7.24-8.48.2-4.07,7.44Z"/>
          </g>
          <g class="cls-6">
            <polygon class="cls-13" points="12.56 18.37 7.85 10.63 12.19 2.68 21.25 2.47 25.96 10.21 21.61 18.16 12.56 18.37"/>
            <path d="M12.28,18.88l-5.01-8.23L11.89,2.19l9.63-.22,5.01,8.23-4.62,8.45-9.63.22ZM8.42,10.62l4.41,7.25,8.48-.2,4.07-7.44-4.41-7.25-8.48.2-4.07,7.44Z"/>
          </g>
          <g class="cls-6">
            <polygon class="cls-2" points="12.99 13.71 8.28 5.97 12.63 -1.98 21.68 -2.19 26.39 5.55 22.05 13.5 12.99 13.71"/>
            <path d="M12.72,14.21L7.7,5.98,12.33-2.47l9.63-.22,5.01,8.23-4.62,8.46-9.63.22ZM8.86,5.96l4.41,7.25,8.48-.2,4.07-7.44-4.41-7.25-8.48.2-4.07,7.44Z"/>
          </g>
        </g>
      </g>
    </g>
  </g>
</svg>