<?xml version="1.0" encoding="UTF-8"?>
<svg id="Layer_2" data-name="Layer 2" xmlns="http://www.w3.org/2000/svg" viewBox="0 0 24 24">
  <g id="_Layer_" data-name="&amp;lt;Layer&amp;gt;">
    <path d="M23.88,13.2l-.25-1.24.02-1.27.33-1.44-.2-1.49-.29-1.4-.41-1.34-.95-1.15-.69-1.23-1.24-1.03-1.17-.76-1.49-.33-1.4-.41-1.43-.13-1.3.3-1.35-.04-1.37-.13-1.34.02-1.48-.08-1.32.55-1.34.19-1.35.85-.9,1.1-1.1.87-.89,1.4-.45,1.36-.37,1.45.26,1.39-.33,1.45.5,1.35-.16,1.18-.42,1.45.16,1.49,1.05,2.8,1.55,2.24,1.24.93,1.22.74,2.64,1.1,1.44-.16,1.43.22,1.32-.32,1.31-.07,1.41.08,1.3-.11,1.53.02,1.33-.78,2.27-1.51.92-1.19.9-1.07.98-4.33-.12-1.51ZM13.49,1.21l1.28-.28,1.2.1,1.35.4,1.28.25,1.06.69,1.02.81.7,1.22.85.98.37,1.2.27,1.32.06.41-.11-.41-1.12.3-.04-.36-.41-1.27-.47-1.26-.93-1.17-1.23-.76-1.07-.8-1.46-.42-1.38-.32-1.52.13-.69.23.05-1.01.95.02ZM21.06,10.59l-.5,1.37.54,1.36-.14,1.29v1.24s-.59,1.13-.59,1.13l-.48,1.13-.73,1.03-.97.65-.61-.85.74-.59.81-1.25.55-1.15.26-1.42.11-1.35-.29-1.24.22-1.26v-.8s.61-.19.61-.19l.35-.16.12,1.06ZM2.94,9.55l.59.23.41.09.06.93.27,1.15-.33,1.24.19,1.33.06,1.3.65,1.35.99,1,.62.66-.59.84-.97-.6-.79-.87-.81-2.4-.32-1.23.06-1.24.17-1.42-.26-2.36ZM19.07,10.6l-.25,1.37.3,1.29-.09,1.16-.2,1.19-.5,1.04-.65,1.03-.62.52-.77-1.06.99-.82.7-1.44.24-1.58-.31-1.34.33-1.35-.03-.18.85-.27v.44ZM5.63,16.67l-.52-1-.06-1.24-.17-1.18.34-1.28-.31-1.3-.04-.59h0s1.05.32,1.05.32v.23s.09,1.28.09,1.28l-.13,1.43.3,1.47.51,1.41,1.09.93-.76.96-1.4-1.43ZM11.51,4.96l.11.96v.05s-.96-.14-.96-.14l-1.37.06-1.39.79-1.07,1.12-.82,1.26-.02.39-.87-.27-.16-.03.7-1.93.85-.84.8-.88,1.07-.41,1.14-.34,1.24.2.76.02ZM17.28,13.34l-.17,1.22-.5,1.11-.85.71-.65-.98.58-.69.6-1.42-.18-1.33.14-.87,1-.34-.3,1.21.32,1.39ZM15.36,13.17l-.41.99-.36.43-.27-.41-.4-.47.41-1.77-.06-.25.94-.25.06-.02-.08.52.17,1.22ZM9.12,14.17l-.37-1.01.09-1.27-.07-.47,1,.31-.06.22.41,1.85-.37.45-.25.35-.38-.44ZM12.39,11.47l.18.68-.54.4-.57-.41.23-.66h.7ZM11.61,11.37l-.75-.24.07-.27.67-.15v.66ZM11.31,12.25l-.45.63-.19-.85.64.22ZM12.03,12.82l.31.42-.32.07-.3-.06.31-.43ZM13.39,11.96l-.2.86-.52-.69.71-.19v.02ZM12.53,11.21v-.47s.58.14.58.14l.04.17-.62.17ZM10.18,10.09l-.19.77-1.24-.39.26-.77.77-.76,1.03-.33.78.1v1.07s-1.4.32-1.4.32ZM10.48,14.82l.63-.75.93.19.95-.22.61.71.24.36-.59.18-1.21-.06h-1.15s-.6-.15-.6-.15l.19-.27ZM14.95,10.56l-.91.24-.18-.7-1.35-.32v-1.09s.72-.08.72-.08l.99.39.78.74.27.72-.32.11ZM11.57,7.76l-.86-.1-1.32.43-1.11,1.02-.4,1.08-.06-.02-.94-.4.02-.41.63-.99.88-.93,1.02-.63,1.16-.06.98.15-.02.45v.41ZM6.85,10.76l.66.28.29.09.12.79-.11,1.37.47,1.27.68.81-.04.05-.59.98-.86-.74-.41-1.11-.25-1.27.12-1.37-.09-1.17ZM9.69,15.94l.04-.05,1.04.26h1.24s1.34.07,1.34.07l1-.3.63.96-.37.23-1.2.03-1.43-.12-1.3.11-1.25-.04-.32-.2.58-.96ZM16.15,10.16l-.32-.85-1.03-1.04-1.43-.6-.86.1v-.4s.01-.47.01-.47l.88-.14,1.18.19,1.17.41.71.97.65,1.09.07.41-1.02.34ZM17.99,9.15l-.78-1.36-.9-1.24-1.52-.52-1.41-.23-.85.14v-.06s-.1-.92-.1-.92l2.02-.03,1.2.26,1.16.32.89.68.6,1.08.63,1,.09.91-.12.04-.86.29-.06-.36ZM8.56,17.65l.6.37,1.55.04,1.28-.11,1.4.12,1.5-.03.63-.4.7.94-1.72.49-1.17.15-1.3-.53-1.33.49-1.13-.04-1.21-.22-.58-.29.78-.99ZM19.93,8.92l-.08-.85-.75-1.28-.64-1.14-1.16-.94-1.43-.42-1.32-.27h-1.27s-.88.02-.88.02l.04-.85.92-.31,1.27-.1,2.43.61,1.04.77,1.08.64.75.92.82,2.33.06.52-.55.25-.35.1ZM11.49,4.04h-.66s-1.38-.24-1.38-.24l-1.37.41-1.21.46-1.03,1.07-.91.9-.52,1.38-.36.93-.26-.06-.77-.3.06-.49.4-1.21.79-1.05.62-1.05,3.3-1.87,1.17-.17,1.27.04.89.36-.04.89ZM7.19,19.38l.02-.02.81.42,1.46.28,1.38.05,1.17-.43,1.19.49,1.47-.2,2.13-.6v.02s.67.93.67.93l-.35.27-1.26.13-1.26.23-1.23.15-1.3-.49-1.41.24-1.2.11-1.33-.21-1.21-.12-.37-.35.63-.9ZM1.4,6.64l.39-1.22.7-1.12,1.1-.89.83-1.03,1.01-.68,1.29-.18,1.29-.53,1.3.07,1.32-.02.97.1-.05,1.02-.66-.27-1.59-.07-1.34.19-3.75,2.08-.72,1.22-.81,1.07-.51,1.5-.05.36-.86-.33-.13.32-.07-.38.31-1.22ZM22.24,18.55l-.84,1-.77,1.04-2.18,1.45-1.09.64-1.32-.02-1.27.11-1.39-.08-1.44.08-1.23.29-1.37-.21-1.33.15-2.37-.98-1.12-.68-1.04-.76-1.45-2.08-.95-2.54-.13-1.24.39-1.34.21-1.48-.49-1.3.31-1.36-.06-.33.74.29-.02.15.28,2.55-.17,1.35-.07,1.42.37,1.41.84,2.51,1,1.17,1.08.67-.44.62.75.53.37-.53.51.48,1.49.14,1.41.21,1.35-.11,1.2-.21,1.28.48,1.48-.18,1.26-.23,1.48-.15.53-.4.36.51.76-.52-.39-.54,1.01-.67.95-1.3.51-1.18.69-1.3v-1.42s.16-1.46.16-1.46l-.5-1.25.45-1.24-.19-1.57,1.18-.31.05.38-.31,1.37-.02,1.46.25,1.28.1,1.32-.83,3.9Z"/>
  </g>
</svg>