<?xml version="1.0" encoding="UTF-8"?>
<svg id="Layer_2" data-name="Layer 2" xmlns="http://www.w3.org/2000/svg" viewBox="0 0 24 24">
  <g id="_Layer_" data-name="&amp;lt;Layer&amp;gt;">
    <path d="M12,0H0v24h24V0h-12ZM23.04.96v6.34c-1.21-2.84-3.5-5.12-6.34-6.34h6.34ZM.96.96h6.34C4.46,2.17,2.17,4.46.96,7.3V.96ZM.96,23.04v-6.34c1.21,2.84,3.5,5.12,6.34,6.34H.96ZM23.04,23.04h-6.34c2.84-1.21,5.12-3.5,6.34-6.34v6.34ZM12,23.04C5.91,23.04.96,18.09.96,12S5.91.96,12,.96s11.04,4.95,11.04,11.04-4.95,11.04-11.04,11.04Z"/>
  </g>
</svg>